<?xml version="1.0" encoding="UTF-8" standalone="no"?>
<!-- Created with Inkscape (http://www.inkscape.org/) -->

<svg
   xmlns:dc="http://purl.org/dc/elements/1.1/"
   xmlns:cc="http://creativecommons.org/ns#"
   xmlns:rdf="http://www.w3.org/1999/02/22-rdf-syntax-ns#"
   xmlns:svg="http://www.w3.org/2000/svg"
   xmlns="http://www.w3.org/2000/svg"
   xmlns:sodipodi="http://sodipodi.sourceforge.net/DTD/sodipodi-0.dtd"
   xmlns:inkscape="http://www.inkscape.org/namespaces/inkscape"
   width="1920"
   height="1080"
   id="svg2"
   version="1.1"
   inkscape:version="0.92.2 2405546, 2018-03-11"
   sodipodi:docname="intro.svg"
   inkscape:export-filename="/home/max/Videos/nnev/20180222/banner_2.png"
   inkscape:export-xdpi="96"
   inkscape:export-ydpi="96">
  <defs
     id="defs4" />
  <sodipodi:namedview
     id="base"
     pagecolor="#ffffff"
     bordercolor="#666666"
     borderopacity="1.0"
     inkscape:pageopacity="0.0"
     inkscape:pageshadow="2"
     inkscape:zoom="0.70520833"
     inkscape:cx="975.59823"
     inkscape:cy="766.88331"
     inkscape:document-units="px"
     inkscape:current-layer="layer1"
     showgrid="false"
     inkscape:window-width="1916"
     inkscape:window-height="687"
     inkscape:window-x="3360"
     inkscape:window-y="1646"
     inkscape:window-maximized="0" />
  <metadata
     id="metadata7">
    <rdf:RDF>
      <cc:Work
         rdf:about="">
        <dc:format>image/svg+xml</dc:format>
        <dc:type
           rdf:resource="http://purl.org/dc/dcmitype/StillImage" />
        <dc:title />
      </cc:Work>
    </rdf:RDF>
  </metadata>
  <g
     inkscape:groupmode="layer"
     id="layer2"
     inkscape:label="Hintergrund">
    <rect
       style="fill:#000000;fill-opacity:1;stroke-width:10;stroke-miterlimit:4;stroke-dasharray:none"
       id="rect2986"
       width="1920"
       height="1080"
       x="0"
       y="0" />
    <g
       id="logo"
       transform="matrix(0.0625,0,0,-0.0625,339.50708,1096.4483)"
       style="fill:#e12617"
       inkscape:label="#g12">
      <g
         id="Text-Outlines"
         transform="scale(10)"
         style="fill:#e12617">
        <g
           id="www.noname-ev.de"
           style="fill:#e12617">
          <polygon
             class="st0"
             points="935.4,287.5 945.8,287.5 950.3,267.6 956,287.5 965.6,287.5 971.5,267.6 976.1,287.5 986.4,287.5 976.1,255.9 966.5,255.9 960.8,274.9 955.4,255.9 945.8,255.9 "
             id="polygon9"
             style="fill:#e12617" />
          <polygon
             class="st0"
             points="986,287.5 996.4,287.5 1000.9,267.6 1006.6,287.5 1016.3,287.5 1022.2,267.6 1026.7,287.5 1037,287.5 1026.7,255.9 1017.1,255.9 1011.5,274.9 1006,255.9 996.4,255.9 "
             id="polygon11"
             style="fill:#e12617" />
          <polygon
             class="st0"
             points="1036.6,287.5 1047,287.5 1051.5,267.6 1057.2,287.5 1066.9,287.5 1072.8,267.6 1077.3,287.5 1087.6,287.5 1077.3,255.9 1067.8,255.9 1062.1,274.9 1056.6,255.9 1047,255.9 "
             id="polygon13"
             style="fill:#e12617" />
          <polygon
             class="st0"
             points="1097.4,268.1 1097.4,255.9 1085.9,255.9 1085.9,268.1 "
             id="polygon15"
             style="fill:#e12617" />
          <path
             inkscape:connector-curvature="0"
             class="st0"
             d="m 1103.9,287.5 h 10 v -5.1 c 1.5,2.1 3,3.6 4.5,4.5 1.5,0.9 3.4,1.4 5.6,1.4 3,0 5.3,-1 7,-3 1.7,-2 2.5,-5.1 2.5,-9.2 V 256 h -10.8 v 17.4 c 0,2 -0.3,3.4 -1,4.2 -0.6,0.8 -1.6,1.2 -2.7,1.2 -1.3,0 -2.4,-0.6 -3.2,-1.7 -0.8,-1.1 -1.2,-3.1 -1.2,-6 v -15.2 h -10.7 z"
             id="path17"
             style="fill:#e12617" />
          <path
             inkscape:connector-curvature="0"
             class="st0"
             d="m 1149.2,271.7 c 0,-2.8 0.5,-4.9 1.5,-6.2 1,-1.4 2.3,-2 3.8,-2 1.5,0 2.8,0.7 3.8,2 1,1.3 1.5,3.5 1.5,6.4 0,2.7 -0.5,4.8 -1.5,6.1 -1,1.3 -2.2,2 -3.7,2 -1.6,0 -2.9,-0.7 -3.9,-2 -1,-1.5 -1.5,-3.6 -1.5,-6.3 z m -10.8,0 c 0,4.8 1.4,8.8 4.3,11.9 2.9,3.1 6.8,4.7 11.7,4.7 5.6,0 9.8,-1.8 12.7,-5.5 2.3,-3 3.5,-6.6 3.5,-10.9 0,-4.9 -1.4,-8.9 -4.3,-12 -2.9,-3.1 -6.8,-4.7 -11.9,-4.7 -4.5,0 -8.1,1.3 -10.9,3.9 -3.4,3.2 -5.1,7.4 -5.1,12.6 z"
             id="path19"
             style="fill:#e12617" />
          <path
             inkscape:connector-curvature="0"
             class="st0"
             d="m 1175.5,287.5 h 10 v -5.1 c 1.5,2.1 3,3.6 4.5,4.5 1.5,0.9 3.4,1.4 5.6,1.4 3,0 5.3,-1 7,-3 1.7,-2 2.5,-5.1 2.5,-9.2 V 256 h -10.8 v 17.4 c 0,2 -0.3,3.4 -1,4.2 -0.6,0.8 -1.6,1.2 -2.7,1.2 -1.3,0 -2.4,-0.6 -3.2,-1.7 -0.8,-1.1 -1.2,-3.1 -1.2,-6 v -15.2 h -10.7 z"
             id="path21"
             style="fill:#e12617" />
          <path
             inkscape:connector-curvature="0"
             class="st0"
             d="m 1230.4,270.9 c -1.5,-0.6 -3,-1.1 -4.6,-1.6 -2.2,-0.7 -3.6,-1.3 -4.1,-1.9 -0.6,-0.7 -0.9,-1.4 -0.9,-2.2 0,-1 0.3,-1.7 0.9,-2.3 0.6,-0.6 1.5,-0.9 2.6,-0.9 1.2,0 2.3,0.3 3.3,1 1,0.7 1.8,1.5 2.2,2.4 0.4,0.9 0.6,2.2 0.6,3.7 z m -9.3,6.4 -10.3,1.2 c 0.4,2 0.9,3.6 1.7,4.8 0.7,1.2 1.8,2.2 3.2,3 1,0.6 2.3,1.1 4.1,1.4 1.7,0.3 3.6,0.5 5.6,0.5 3.2,0 5.8,-0.2 7.7,-0.6 2,-0.4 3.6,-1.3 4.9,-2.5 0.9,-0.9 1.6,-2.2 2.2,-3.8 0.5,-1.6 0.8,-3.2 0.8,-4.7 v -14 c 0,-1.5 0.1,-2.7 0.2,-3.5 0.2,-0.8 0.5,-1.9 1.1,-3.2 h -10.1 c -0.4,0.8 -0.7,1.4 -0.8,1.9 -0.1,0.4 -0.2,1.1 -0.4,2 -1.4,-1.5 -2.8,-2.6 -4.2,-3.3 -1.9,-0.9 -4.1,-1.3 -6.6,-1.3 -3.3,0 -5.9,0.9 -7.6,2.6 -1.7,1.8 -2.6,3.9 -2.6,6.5 0,2.4 0.6,4.4 1.9,5.9 1.2,1.6 3.6,2.7 6.9,3.5 4,0.9 6.6,1.6 7.8,1.9 1.2,0.4 2.5,0.8 3.8,1.5 0,1.5 -0.3,2.5 -0.8,3.1 -0.5,0.6 -1.5,0.9 -2.9,0.9 -1.8,0 -3.1,-0.3 -4,-1 -0.6,-0.5 -1.1,-1.4 -1.6,-2.8 z"
             id="path23"
             style="fill:#e12617" />
          <path
             inkscape:connector-curvature="0"
             class="st0"
             d="m 1247.3,287.5 h 10 v -4.6 c 1.4,1.9 2.9,3.3 4.4,4.1 1.5,0.8 3.2,1.2 5.3,1.2 2.2,0 4,-0.4 5.3,-1.3 1.3,-0.9 2.4,-2.2 3.2,-4 1.7,2.1 3.2,3.5 4.6,4.2 1.4,0.8 3.1,1.1 5.1,1.1 3,0 5.4,-1 7,-3 1.7,-2 2.5,-5.2 2.5,-9.5 V 255.8 H 1284 v 18 c 0,1.4 -0.2,2.5 -0.7,3.2 -0.7,1.1 -1.6,1.6 -2.7,1.6 -1.3,0 -2.3,-0.5 -3.1,-1.5 -0.8,-1 -1.2,-2.7 -1.2,-5 v -16.3 h -10.8 v 17.4 c 0,1.4 -0.1,2.3 -0.2,2.8 -0.2,0.8 -0.6,1.4 -1.2,1.9 -0.6,0.5 -1.2,0.7 -2,0.7 -1.2,0 -2.2,-0.5 -3,-1.6 -0.8,-1.1 -1.2,-2.8 -1.2,-5.2 v -16.1 h -10.8 v 31.8 z"
             id="path25"
             style="fill:#e12617" />
          <path
             inkscape:connector-curvature="0"
             class="st0"
             d="m 1321,274.5 c -0.2,2.3 -0.8,4 -1.7,5 -0.9,1 -2.1,1.5 -3.6,1.5 -1.7,0 -3.1,-0.8 -4.1,-2.3 -0.6,-0.9 -1.1,-2.4 -1.2,-4.3 h 10.6 z m 10.9,-5.8 h -21.5 c 0.2,-1.9 0.7,-3.4 1.4,-4.4 1,-1.4 2.4,-2 4,-2 1.1,0 2.1,0.3 3,0.9 0.6,0.4 1.2,1 1.9,2 l 10.6,-1.1 c -1.6,-3.2 -3.6,-5.5 -5.9,-6.8 -2.3,-1.4 -5.6,-2.1 -9.8,-2.1 -3.7,0 -6.6,0.6 -8.8,1.8 -2.1,1.2 -3.9,3.1 -5.3,5.6 -1.4,2.6 -2.1,5.6 -2.1,9.1 0,4.9 1.4,8.9 4.2,12 2.8,3.1 6.7,4.6 11.6,4.6 4,0 7.2,-0.7 9.5,-2.1 2.3,-1.4 4.1,-3.4 5.3,-6 1.2,-2.6 1.8,-6 1.8,-10.2 v -1.3 z"
             id="path27"
             style="fill:#e12617" />
          <polygon
             class="st0"
             points="1350.2,276.5 1350.2,267.2 1334.6,267.2 1334.6,276.5 "
             id="polygon29"
             style="fill:#e12617" />
          <path
             inkscape:connector-curvature="0"
             class="st0"
             d="m 1374.7,274.5 c -0.2,2.3 -0.8,4 -1.7,5 -0.9,1 -2.1,1.5 -3.6,1.5 -1.7,0 -3.1,-0.8 -4.1,-2.3 -0.6,-0.9 -1.1,-2.4 -1.2,-4.3 h 10.6 z m 10.9,-5.8 h -21.5 c 0.2,-1.9 0.7,-3.4 1.4,-4.4 1,-1.4 2.4,-2 4,-2 1.1,0 2.1,0.3 3,0.9 0.6,0.4 1.2,1 1.9,2 l 10.6,-1.1 c -1.6,-3.2 -3.6,-5.5 -5.9,-6.8 -2.3,-1.4 -5.6,-2.1 -9.8,-2.1 -3.7,0 -6.6,0.6 -8.8,1.8 -2.1,1.2 -3.9,3.1 -5.3,5.6 -1.4,2.6 -2.1,5.6 -2.1,9.1 0,4.9 1.4,8.9 4.2,12 2.8,3.1 6.7,4.6 11.6,4.6 4,0 7.2,-0.7 9.5,-2.1 2.3,-1.4 4.1,-3.4 5.3,-6 1.2,-2.6 1.8,-6 1.8,-10.2 v -1.3 z"
             id="path31"
             style="fill:#e12617" />
          <polygon
             class="st0"
             points="1397.5,255.9 1385.9,287.5 1397,287.5 1402.5,267.5 1408.1,287.5 1418.9,287.5 1407,255.9 "
             id="polygon33"
             style="fill:#e12617" />
          <polygon
             class="st0"
             points="1428.4,268.1 1428.4,255.9 1416.9,255.9 1416.9,268.1 "
             id="polygon35"
             style="fill:#e12617" />
          <path
             inkscape:connector-curvature="0"
             class="st0"
             d="m 1453.6,271.8 c 0,2.5 -0.5,4.3 -1.4,5.5 -0.9,1.2 -2.1,1.8 -3.5,1.8 -1.2,0 -2.3,-0.6 -3.1,-1.8 -0.8,-1.2 -1.3,-3.1 -1.3,-5.9 0,-2.6 0.4,-4.5 1.3,-5.7 0.9,-1.2 2,-1.8 3.2,-1.8 1.4,0 2.5,0.6 3.4,1.8 0.9,1.4 1.4,3.4 1.4,6.1 z m 10.8,27.8 v -43.7 h -10 v 4.7 c -1.4,-2 -2.7,-3.3 -3.8,-4 -1.6,-0.9 -3.3,-1.4 -5.2,-1.4 -3.8,0 -6.7,1.6 -8.7,4.9 -2,3.3 -3,7.3 -3,12 0,5.2 1.1,9.2 3.3,12 2.2,2.8 5,4.2 8.5,4.2 1.7,0 3.2,-0.3 4.5,-1 1.4,-0.6 2.6,-1.6 3.6,-2.9 v 15.1 h 10.8 z"
             id="path37"
             style="fill:#e12617" />
          <path
             inkscape:connector-curvature="0"
             class="st0"
             d="m 1490.9,274.5 c -0.2,2.3 -0.8,4 -1.7,5 -0.9,1 -2.1,1.5 -3.6,1.5 -1.7,0 -3.1,-0.8 -4.1,-2.3 -0.6,-0.9 -1.1,-2.4 -1.2,-4.3 h 10.6 z m 10.9,-5.8 h -21.5 c 0.2,-1.9 0.7,-3.4 1.4,-4.4 1,-1.4 2.4,-2 4,-2 1.1,0 2.1,0.3 3,0.9 0.6,0.4 1.2,1 1.9,2 l 10.6,-1.1 c -1.6,-3.2 -3.6,-5.5 -5.9,-6.8 -2.3,-1.4 -5.6,-2.1 -9.8,-2.1 -3.7,0 -6.6,0.6 -8.8,1.8 -2.1,1.2 -3.9,3.1 -5.3,5.6 -1.4,2.6 -2.1,5.6 -2.1,9.1 0,4.9 1.4,8.9 4.2,12 2.8,3.1 6.7,4.6 11.6,4.6 4,0 7.2,-0.7 9.5,-2.1 2.3,-1.4 4.1,-3.4 5.3,-6 1.2,-2.6 1.8,-6 1.8,-10.2 v -1.3 z"
             id="path39"
             style="fill:#e12617" />
        </g>
        <path
           id="NAME"
           inkscape:connector-curvature="0"
           class="st0"
           d="m 733.5,508.4 h 50.8 l 66.3,-111.7 v 111.7 h 51.3 v -202 h -51.3 l -66,110.9 V 306.4 h -51.2 z m 310.4,-168.7 h -62 l -8.5,-33.3 h -55.6 l 66.2,202 h 59.3 l 66.2,-201.9 h -56.9 z m -11.4,43.7 -19.5,72.6 -19.3,-72.6 z m 93.8,125 h 71.6 l 27.6,-122.9 27.5,122.9 h 71.3 v -202 h -44.4 v 154 l -34.5,-154 h -40.2 l -34.4,154 v -154 h -44.6 z m 232.6,0 h 145.8 v -43.1 h -91.2 v -32.1 h 0.3 V 392 h -0.3 v -39.8 h 93.9 V 306.5 H 1359 l -0.1,201.9"
           style="fill:#e12617" />
        <g
           id="No_x3F_"
           style="fill:#e12617">
          <polygon
             class="st0"
             points="552,508.1 598.3,508.1 598.3,308.4 552,308.4 492.5,418 492.5,308.4 446.3,308.4 446.3,508.1 492.1,508.1 552,397.6 "
             id="polygon43"
             style="fill:#e12617" />
          <path
             inkscape:connector-curvature="0"
             class="st0"
             d="m 647.1,287.6 h 31 v -32.4 h -31 z m 29.9,9.1 h -29 v 3.4 c 0,5.8 0.6,10.6 1.7,14.2 1.1,3.6 2.8,7 5,10 2.2,3 7.2,8.3 14.9,15.9 4.1,4 6.2,7.6 6.2,10.9 0,3.3 -0.8,5.9 -2.5,7.7 -1.6,1.8 -4.1,2.8 -7.5,2.8 -3.6,0 -6.6,-1.4 -9,-4.2 -2.4,-2.8 -3.9,-7.8 -4.5,-14.8 l -29.5,4.3 c 1,12.9 5,23.3 11.8,31.1 6.9,7.9 17.4,11.8 31.7,11.8 11.1,0 20,-2.7 26.8,-8.2 9.2,-7.4 13.9,-17.3 13.9,-29.6 0,-5.1 -1.2,-10.1 -3.6,-14.8 -2.4,-4.8 -7.3,-10.6 -14.6,-17.4 -5.1,-4.8 -8.4,-8.7 -9.7,-11.6 -1.4,-3 -2.1,-6.8 -2.1,-11.5 z"
             id="path45"
             style="fill:#e12617" />
          <path
             inkscape:connector-curvature="0"
             class="st0"
             d="m 644.4,451.7 c 0,-9.8 1.7,-16.9 5.2,-21.2 3.4,-4.3 8.1,-6.4 14,-6.4 6.1,0 10.8,2.1 14.1,6.3 3.3,4.2 5,11.8 5,22.7 0,9.2 -1.7,15.8 -5.2,20.1 -3.5,4.2 -8.2,6.3 -14.2,6.3 -5.7,0 -10.3,-2.1 -13.8,-6.4 -3.4,-4.4 -5.1,-11.5 -5.1,-21.4 z m -28.3,0.1 c 0,15.9 4.2,28.3 12.5,37.1 8.3,8.9 19.9,13.3 34.8,13.3 15.2,0 27,-4.4 35.2,-13 8.2,-8.7 12.4,-20.9 12.4,-36.6 0,-11.4 -1.8,-20.7 -5.4,-28 -3.6,-7.3 -8.8,-12.9 -15.6,-17 -6.8,-4.1 -15.3,-6.1 -25.5,-6.1 -10.3,0 -18.9,1.7 -25.7,5.2 -6.8,3.5 -12.3,9 -16.5,16.6 -4.1,7.7 -6.2,17.2 -6.2,28.5 z"
             id="path47"
             style="fill:#e12617" />
        </g>
      </g>
      <path
         id="Rahmen"
         sodipodi:nodetypes="ccccccccccccccccccccccccccccccc"
         inkscape:connector-curvature="0"
         class="st0"
         d="m 3807.6,5590.6 v 0 0 h 11787.7 v 0 h 4.9 V 4651 h -319 v 620.6 H 4126.6 v -2396 H 6357 v -319 H 3807.7 v 2.4 0 z m 11473.6,-2715 h -189.9 v -319 h 504 v 4.9 h 4.9 v 1016.1 h -319 z m -5998,0 H 6898.7 v -319 h 2384.5 z"
         style="fill:#e12617" />
      <path
         id="Knoten"
         inkscape:connector-curvature="0"
         class="st0"
         d="m 16695.6,1372.4 c -4.7,-29.2 -6.6,-58.4 -11.3,-87.5 -107.3,-15.1 -223,-16 -333.1,-2.8 16,30.1 43.3,60.2 59.2,90.3 96,-14.1 180.7,-14.1 285.2,0 z m 127.1,-62.1 c 106.3,334.1 238.1,1046.5 93.1,1019.2 -48,54.6 -386.8,-339.7 -392.4,-700.2 l -65,5.6 c -112.9,425.4 366.3,674.9 411.5,1026.9 23,-5.8 63.9,-3.5 108,21.4 144,-440.4 132.7,-782.9 -31,-1350.4 -33.9,-416 -8.5,-563.7 166.6,-714.3 24,-73.9 22.1,-124.7 -5.7,-146.8 -32.9,8.6 -393.4,104.6 -285.1,838.6 z m 420.6,1592 c -34.9,-55.3 -56.6,-75.1 -104.4,-104.5 433.8,-641.8 325.6,-1080 -25.4,-1346.4 -19.5,-36.6 -19.5,-66.7 0,-90.3 254.1,127 485.6,403.7 378.3,999.4 297.4,-115.8 445.1,-70.6 643.7,-33.9 -18.8,32.9 -23.1,75.6 -56.5,98.8 -494.1,-121.3 -663.5,112.7 -835.7,476.9 z m -733.3,-68.9 c -79,10.8 -77.3,-67.8 28.3,-77.1 283.3,15.1 859.9,267.6 866.4,709.8 10,102 -18.8,168.4 -47.6,102.2 -19.7,-318.6 -430.8,-688.2 -847.1,-734.9 z m 752.6,897.7 c -112.1,-433.7 -668.8,-615.9 -1016.3,-636.7 -74.5,0.6 -70.7,-38 -16.8,-70.9 643.1,-48.9 1060.2,381 1093.1,616.6 8.1,57.7 -1,83.4 -60,91 z m -1127.2,-438.7 c 610.9,-10.1 1081.2,155.9 1040.1,561.3 -21.8,57.5 -24.6,6.8 42.1,171.9 19.5,82.7 3.8,162.2 -56.2,85.5 -52.6,-12.4 -80.2,-221.9 -155.6,-36.3 -43.1,130.9 -85.3,199.7 -186.8,375.1 -36.5,27.3 -109.7,22.4 -112.6,-4.9 121.8,-164.2 300.9,-518 193.9,-586.9 0,0 14.5,0 14.4,0 -0.4,-0.3 -0.9,-0.7 -1.4,-1 -0.1,-0.1 -0.2,-0.1 -0.3,-0.2 v 0 c -14,-9.9 -25.4,-28.4 -92.2,-27.8 -78.5,233.7 -129.3,481.8 -365.3,728.3 -53.7,63 -136.8,58.3 -93,-31.4 181.7,-236.3 274.6,-395.1 347.3,-656.5 9,-27.4 6.9,-43 -0.6,-75.1 -1.1,4.3 -4.9,-3.3 -29.1,-2.8 -138.1,49.3 151,-8.3 -545.2,792.9 -64.3,57.9 -138.1,30.4 -105.9,-36.3 229.3,-302.6 458.2,-576.6 463.3,-691.4 -20.7,-9.3 -40.3,0.2 -61,7.7 -99.1,160.6 -227.2,523.3 -765.4,618.2 -297,52.6 -1058.2,55.4 -1558.6,53.3 l -17.7,-137.9 c 1027.5,38.1 1907.3,20.3 1991.3,-280.4 -318.3,128.8 -316.9,158.5 -1989.1,134.4 l 8.4,-110.9 c 1569.3,6.8 1920.7,27.6 1943.6,-193.7 -165.2,90.2 -902.6,84.7 -1936.2,86.4 l -13,-119.4 c 1555.1,4.2 1898.4,48.9 1960.6,-161.9 -262.6,61.6 -1282.1,32.6 -1950.5,33.9 v -109.2 c 1297,2.3 1816.9,22.6 1811.7,-54.8 l 6.1,-0.4 c 0.8,-27.1 1.5,-54.3 2.3,-81.4 630,-134.6 1051.9,169.4 1102.5,236.2 l 9.3,1.6 c 62.9,-285.5 -639.8,-430.3 -931.1,-424.2 -82.4,14.8 -88.1,-57.7 29.9,-61.9"
         style="fill:#e12617" />
    </g>
  </g>
  <g
     inkscape:label="Ebene 1"
     inkscape:groupmode="layer"
     id="layer1"
     transform="translate(0,27.637847)">
    <flowRoot
       xml:space="preserve"
       id="title"
       style="font-style:normal;font-variant:normal;font-weight:bold;font-stretch:normal;font-size:74.66666667px;line-height:1.25;font-family:monospace;-inkscape-font-specification:'monospace, Bold';font-variant-ligatures:normal;font-variant-caps:normal;font-variant-numeric:normal;font-feature-settings:normal;text-align:center;letter-spacing:0px;word-spacing:0px;writing-mode:lr;text-anchor:middle;fill:#e12617;fill-opacity:1;stroke:none;"
       transform="translate(-98.524408,43.263187)"
       inkscape:label="title"><flowRegion
         id="flowRegion4881"
         style="font-style:normal;font-variant:normal;font-weight:bold;font-stretch:normal;font-size:74.66666667px;font-family:monospace;-inkscape-font-specification:'monospace, Bold';font-variant-ligatures:normal;font-variant-caps:normal;font-variant-numeric:normal;font-feature-settings:normal;text-align:center;writing-mode:lr;text-anchor:middle;fill:#e12617;"><rect
           id="rect4883"
           width="1286.0281"
           height="586.46045"
           x="413.63867"
           y="70.330795"
           style="font-style:normal;font-variant:normal;font-weight:bold;font-stretch:normal;font-size:74.66666667px;font-family:monospace;-inkscape-font-specification:'monospace, Bold';font-variant-ligatures:normal;font-variant-caps:normal;font-variant-numeric:normal;font-feature-settings:normal;text-align:center;writing-mode:lr;text-anchor:middle;fill:#e12617;" /></flowRegion><flowPara
         id="flowPara4887">$title</flowPara></flowRoot>    <flowRoot
       xml:space="preserve"
       id="persons"
       style="font-style:normal;font-variant:normal;font-weight:normal;font-stretch:normal;font-size:53.33333206px;line-height:1.25;font-family:sans-serif;-inkscape-font-specification:'sans-serif, Normal';font-variant-ligatures:normal;font-variant-caps:normal;font-variant-numeric:normal;font-feature-settings:normal;text-align:center;letter-spacing:0px;word-spacing:0px;writing-mode:lr-tb;text-anchor:middle;fill:#e12617;fill-opacity:1;stroke:none"
       transform="translate(-25.326167,-204.89044)"
       inkscape:label="persons"><flowRegion
         id="flowRegion5060"
         style="font-style:normal;font-variant:normal;font-weight:normal;font-stretch:normal;font-size:53.33333206px;font-family:sans-serif;-inkscape-font-specification:'sans-serif, Normal';font-variant-ligatures:normal;font-variant-caps:normal;font-variant-numeric:normal;font-feature-settings:normal;text-align:center;writing-mode:lr-tb;text-anchor:middle;fill:#e12617"><rect
           id="rect5062"
           width="799.5929"
           height="128.6514"
           x="584.63104"
           y="690.78882"
           style="font-style:normal;font-variant:normal;font-weight:normal;font-stretch:normal;font-size:53.33333206px;font-family:sans-serif;-inkscape-font-specification:'sans-serif, Normal';font-variant-ligatures:normal;font-variant-caps:normal;font-variant-numeric:normal;font-feature-settings:normal;text-align:center;writing-mode:lr-tb;text-anchor:middle;fill:#e12617" /></flowRegion><flowPara
         id="flowPara7015">$persons</flowPara></flowRoot>    <flowRoot
       inkscape:label="persons"
       transform="translate(-25.222004,-102.79294)"
       style="font-style:normal;font-variant:normal;font-weight:normal;font-stretch:normal;font-size:53.33333206px;line-height:1.25;font-family:sans-serif;-inkscape-font-specification:'sans-serif, Normal';font-variant-ligatures:normal;font-variant-caps:normal;font-variant-numeric:normal;font-feature-settings:normal;text-align:center;letter-spacing:0px;word-spacing:0px;writing-mode:lr-tb;text-anchor:middle;fill:#e12617;fill-opacity:1;stroke:none"
       id="date"
       xml:space="preserve"><flowRegion
         style="font-style:normal;font-variant:normal;font-weight:normal;font-stretch:normal;font-size:53.33333206px;font-family:sans-serif;-inkscape-font-specification:'sans-serif, Normal';font-variant-ligatures:normal;font-variant-caps:normal;font-variant-numeric:normal;font-feature-settings:normal;text-align:center;writing-mode:lr-tb;text-anchor:middle;fill:#e12617"
         id="flowRegion206"><rect
           style="font-style:normal;font-variant:normal;font-weight:normal;font-stretch:normal;font-size:53.33333206px;font-family:sans-serif;-inkscape-font-specification:'sans-serif, Normal';font-variant-ligatures:normal;font-variant-caps:normal;font-variant-numeric:normal;font-feature-settings:normal;text-align:center;writing-mode:lr-tb;text-anchor:middle;fill:#e12617"
           y="690.78882"
           x="584.63104"
           height="128.6514"
           width="799.5929"
           id="rect204" /></flowRegion><flowPara
         id="flowPara212">$date</flowPara></flowRoot>  </g>
</svg>
