<?xml version="1.0" encoding="UTF-8" standalone="no"?>
<!-- Created with Inkscape (http://www.inkscape.org/) -->

<svg
   xmlns:dc="http://purl.org/dc/elements/1.1/"
   xmlns:cc="http://creativecommons.org/ns#"
   xmlns:rdf="http://www.w3.org/1999/02/22-rdf-syntax-ns#"
   xmlns:svg="http://www.w3.org/2000/svg"
   xmlns="http://www.w3.org/2000/svg"
   xmlns:sodipodi="http://sodipodi.sourceforge.net/DTD/sodipodi-0.dtd"
   xmlns:inkscape="http://www.inkscape.org/namespaces/inkscape"
   width="1920"
   height="1080"
   id="svg2"
   version="1.1"
   inkscape:version="0.92.2 2405546, 2018-03-11"
   sodipodi:docname="outro.svg">
  <defs
     id="defs4" />
  <sodipodi:namedview
     id="base"
     pagecolor="#ffffff"
     bordercolor="#666666"
     borderopacity="1.0"
     inkscape:pageopacity="0.0"
     inkscape:pageshadow="2"
     inkscape:zoom="0.45254834"
     inkscape:cx="1335.7381"
     inkscape:cy="397.52234"
     inkscape:document-units="px"
     inkscape:current-layer="layer1"
     showgrid="false"
     inkscape:window-width="1916"
     inkscape:window-height="1029"
     inkscape:window-x="0"
     inkscape:window-y="22"
     inkscape:window-maximized="0"
     inkscape:snap-text-baseline="true" />
  <metadata
     id="metadata7">
    <rdf:RDF>
      <cc:Work
         rdf:about="">
        <dc:format>image/svg+xml</dc:format>
        <dc:type
           rdf:resource="http://purl.org/dc/dcmitype/StillImage" />
        <dc:title />
      </cc:Work>
    </rdf:RDF>
  </metadata>
  <g
     inkscape:groupmode="layer"
     id="layer2"
     inkscape:label="Hintergrund">
    <rect
       style="fill:#000000;fill-opacity:1;stroke-width:10;stroke-miterlimit:4;stroke-dasharray:none"
       id="rect2986"
       width="1920"
       height="1080"
       x="0"
       y="0" />
    <g
       style="font-style:normal;font-weight:normal;font-size:20px;line-height:125%;font-family:Sans;letter-spacing:0px;word-spacing:0px;fill:#e12617;fill-opacity:1;stroke:none"
       id="bysatext"
       inkscape:label="#text4730">
      <path
         d="m 458.19287,1007.2197 v 7.2549 c 0.70833,-0.4205 1.42219,-0.7304 2.1416,-0.9297 0.73046,-0.2102 1.46646,-0.3154 2.20801,-0.3154 1.17317,0 2.21906,0.1992 3.1377,0.5976 0.9186,0.3985 1.67674,1.0294 2.27441,1.8926 0.60871,0.8523 0.91307,1.9314 0.91309,3.2373 v 6.3916 c 0.86326,0 1.42771,0.083 1.69336,0.2491 0.53123,0.3431 0.79685,0.83 0.79687,1.4609 -2e-5,0.498 -0.17157,0.9075 -0.51465,1.2285 -0.34312,0.3099 -0.92417,0.4649 -1.74316,0.4649 h -3.88477 c -0.80795,0 -1.38901,-0.155 -1.74316,-0.4649 -0.34311,-0.321 -0.51466,-0.736 -0.51465,-1.2451 -10e-6,-0.6198 0.26561,-1.1012 0.79687,-1.4443 0.27668,-0.1771 0.84114,-0.2601 1.69336,-0.2491 v -6.1591 c -10e-6,-0.8744 -0.19923,-1.4886 -0.59765,-1.8428 -0.5202,-0.4759 -1.2894,-0.7139 -2.30762,-0.7139 -0.75261,0 -1.42221,0.1494 -2.00879,0.4483 -0.57553,0.2877 -1.3558,0.9186 -2.34082,1.8925 v 6.375 c 0.87434,0 1.4388,0.083 1.69336,0.2491 0.54231,0.3431 0.81347,0.83 0.81348,1.4609 -10e-6,0.498 -0.1771,0.9075 -0.53125,1.2285 -0.34311,0.3099 -0.92416,0.4649 -1.74317,0.4649 h -3.86816 c -0.81901,0 -1.4056,-0.155 -1.75977,-0.4649 -0.3431,-0.321 -0.51465,-0.736 -0.51465,-1.2451 0,-0.6198 0.27116,-1.1012 0.81348,-1.4443 0.26562,-0.1771 0.83008,-0.2601 1.69336,-0.2491 v -14.7256 h -0.58105 c -0.81902,10e-5 -1.4056,-0.1549 -1.75977,-0.4648 -0.3431,-0.3209 -0.51465,-0.736 -0.51465,-1.2451 0,-0.498 0.17155,-0.902 0.51465,-1.2119 0.35417,-0.321 0.94075,-0.4815 1.75977,-0.4815 h 3.98437"
         style="font-variant:normal;font-weight:bold;font-stretch:normal;font-size:34px;font-family:'Courier New';-inkscape-font-specification:'Courier New Bold'"
         id="path4766"
         inkscape:connector-curvature="0" />
      <path
         d="m 481.25244,1017.0811 v 6.8232 c -10e-6,0.7305 0.14941,1.2119 0.44824,1.4443 0.46484,0.3653 1.29491,0.5479 2.49024,0.5479 1.73761,0 3.34243,-0.3708 4.81445,-1.1123 0.56444,-0.2878 1.00714,-0.4317 1.32813,-0.4317 0.44269,0 0.82452,0.1661 1.1455,0.4981 0.33202,0.332 0.49803,0.736 0.49805,1.2119 -2e-5,0.4427 -0.1771,0.8245 -0.53125,1.1455 -0.54234,0.5202 -1.6159,1.0016 -3.2207,1.4443 -1.59377,0.4317 -2.93849,0.6475 -4.03418,0.6475 -2.11394,0 -3.70216,-0.4538 -4.76465,-1.3613 -1.05144,-0.9186 -1.57715,-2.042 -1.57715,-3.3701 v -7.4873 h -1.22851 c -0.81902,0 -1.40561,-0.155 -1.75977,-0.4649 -0.3431,-0.3209 -0.51465,-0.736 -0.51465,-1.2451 0,-0.498 0.17155,-0.902 0.51465,-1.2119 0.35416,-0.321 0.94075,-0.4815 1.75977,-0.4815 h 1.22851 v -3.0713 c 0,-0.8189 0.15494,-1.4 0.46484,-1.7431 0.32096,-0.3542 0.736,-0.5312 1.24512,-0.5313 0.49804,10e-5 0.90201,0.1771 1.21192,0.5313 0.32095,0.3431 0.48143,0.9242 0.48144,1.7431 v 3.0713 h 6.29199 c 0.819,0 1.40005,0.1605 1.74317,0.4815 0.35415,0.3099 0.53123,0.7194 0.53125,1.2285 -2e-5,0.4981 -0.1771,0.9076 -0.53125,1.2285 -0.34312,0.3099 -0.92417,0.4649 -1.74317,0.4649 h -6.29199"
         style="font-variant:normal;font-weight:bold;font-stretch:normal;font-size:34px;font-family:'Courier New';-inkscape-font-specification:'Courier New Bold'"
         id="path4768"
         inkscape:connector-curvature="0" />
      <path
         d="m 501.63916,1017.0811 v 6.8232 c -1e-5,0.7305 0.1494,1.2119 0.44824,1.4443 0.46484,0.3653 1.29491,0.5479 2.49024,0.5479 1.73761,0 3.34243,-0.3708 4.81445,-1.1123 0.56444,-0.2878 1.00714,-0.4317 1.32812,-0.4317 0.44269,0 0.82453,0.1661 1.14551,0.4981 0.33201,0.332 0.49803,0.736 0.49805,1.2119 -2e-5,0.4427 -0.1771,0.8245 -0.53125,1.1455 -0.54234,0.5202 -1.6159,1.0016 -3.2207,1.4443 -1.59377,0.4317 -2.93849,0.6475 -4.03418,0.6475 -2.11395,0 -3.70216,-0.4538 -4.76465,-1.3613 -1.05144,-0.9186 -1.57716,-2.042 -1.57715,-3.3701 v -7.4873 h -1.22852 c -0.81901,0 -1.4056,-0.155 -1.75976,-0.4649 -0.3431,-0.3209 -0.51465,-0.736 -0.51465,-1.2451 0,-0.498 0.17155,-0.902 0.51465,-1.2119 0.35416,-0.321 0.94075,-0.4815 1.75976,-0.4815 h 1.22852 v -3.0713 c -10e-6,-0.8189 0.15494,-1.4 0.46484,-1.7431 0.32096,-0.3542 0.736,-0.5312 1.24512,-0.5313 0.49804,10e-5 0.90201,0.1771 1.21191,0.5313 0.32096,0.3431 0.48144,0.9242 0.48145,1.7431 v 3.0713 h 6.29199 c 0.819,0 1.40005,0.1605 1.74317,0.4815 0.35415,0.3099 0.53123,0.7194 0.53125,1.2285 -2e-5,0.4981 -0.1771,0.9076 -0.53125,1.2285 -0.34312,0.3099 -0.92417,0.4649 -1.74317,0.4649 h -6.29199"
         style="font-variant:normal;font-weight:bold;font-stretch:normal;font-size:34px;font-family:'Courier New';-inkscape-font-specification:'Courier New Bold'"
         id="path4770"
         inkscape:connector-curvature="0" />
      <path
         d="m 518.63916,1026.876 v 5.5781 h 2.04199 c 0.819,0 1.40006,0.1549 1.74317,0.4648 0.35415,0.321 0.53124,0.736 0.53125,1.2452 -10e-6,0.498 -0.1771,0.902 -0.53125,1.2119 -0.34311,0.3209 -0.92417,0.4814 -1.74317,0.4814 h -6.02636 c -0.81902,0 -1.4056,-0.1605 -1.75977,-0.4814 -0.3431,-0.3099 -0.51465,-0.7139 -0.51465,-1.2119 0,-0.5092 0.17708,-0.9242 0.53125,-1.2452 0.35417,-0.3099 0.93522,-0.4648 1.74317,-0.4648 h 0.58105 v -15.373 h -0.58105 c -0.81902,0 -1.4056,-0.155 -1.75977,-0.4649 -0.3431,-0.3209 -0.51465,-0.736 -0.51465,-1.2451 0,-0.498 0.17155,-0.902 0.51465,-1.2119 0.35417,-0.321 0.94075,-0.4815 1.75977,-0.4815 h 3.98437 v 1.1621 c 0.79687,-0.5423 1.62141,-0.9462 2.47363,-1.2119 0.85221,-0.2656 1.72656,-0.3984 2.62305,-0.3984 2.32421,0 4.30532,0.7913 5.94336,2.374 1.638,1.5716 2.45701,3.3757 2.45703,5.4121 -2e-5,2.2468 -0.96844,4.1006 -2.90527,5.5615 -1.6159,1.2175 -3.43654,1.8262 -5.46192,1.8262 -0.87436,0 -1.73764,-0.1273 -2.58984,-0.3818 -0.85222,-0.2546 -1.6989,-0.6364 -2.54004,-1.1455 m 10.09375,-5.8438 c -2e-5,-0.4759 -0.18817,-1.0791 -0.56445,-1.8095 -0.37632,-0.7416 -0.95737,-1.3558 -1.74317,-1.8428 -0.77475,-0.4981 -1.68783,-0.7471 -2.73925,-0.7471 -1.69337,0 -3.0381,0.6364 -4.03418,1.9092 -0.67514,0.8744 -1.01271,1.7155 -1.0127,2.5234 -10e-6,0.9076 0.48144,1.793 1.44434,2.6563 0.97395,0.8522 2.17479,1.2783 3.60254,1.2783 1.43878,0 2.63963,-0.4261 3.60253,-1.2783 0.96288,-0.8522 1.44432,-1.7487 1.44434,-2.6895"
         style="font-variant:normal;font-weight:bold;font-stretch:normal;font-size:34px;font-family:'Courier New';-inkscape-font-specification:'Courier New Bold'"
         id="path4772"
         inkscape:connector-curvature="0" />
      <path
         d="m 546.92822,1017.6621 c -0.5534,-0.3431 -1.13445,-0.5976 -1.74316,-0.7637 -0.60874,-0.177 -1.24513,-0.2656 -1.90918,-0.2656 -1.31707,0 -2.36296,0.2158 -3.1377,0.6475 -0.3431,0.1881 -0.51465,0.3929 -0.51464,0.6142 -1e-5,0.2546 0.23241,0.5036 0.69726,0.7471 0.35416,0.1771 1.1455,0.3486 2.37402,0.5146 2.2578,0.31 3.82942,0.6199 4.71485,0.9297 1.16209,0.4096 2.05858,1.0183 2.68945,1.8262 0.63084,0.808 0.94627,1.6602 0.94629,2.5567 -2e-5,1.2174 -0.5368,2.2356 -1.61035,3.0546 -1.53843,1.1843 -3.53615,1.7764 -5.99317,1.7764 -0.98503,0 -1.89812,-0.089 -2.73925,-0.2656 -0.83009,-0.166 -1.59376,-0.4151 -2.29102,-0.7471 -0.16602,0.1439 -0.3431,0.2546 -0.53125,0.332 -0.18815,0.078 -0.38184,0.1163 -0.58105,0.1163 -0.53126,0 -0.95736,-0.1716 -1.27832,-0.5147 -0.3099,-0.3542 -0.46485,-0.9408 -0.46485,-1.7598 v -1.1455 c 0,-0.819 0.15495,-1.4 0.46485,-1.7431 0.32096,-0.3542 0.73599,-0.5313 1.24511,-0.5313 0.4095,0 0.7526,0.1162 1.0293,0.3486 0.27669,0.2214 0.49251,0.6088 0.64746,1.1622 0.52018,0.4427 1.1455,0.7802 1.87598,1.0127 0.73046,0.2213 1.5716,0.332 2.52344,0.332 1.56053,0 2.77244,-0.2435 3.63574,-0.7305 0.40949,-0.2435 0.61424,-0.498 0.61426,-0.7637 -2e-5,-0.4427 -0.29331,-0.8079 -0.87989,-1.0957 -0.5866,-0.2877 -1.79851,-0.5312 -3.63574,-0.7304 -2.73373,-0.2878 -4.5599,-0.8412 -5.47852,-1.6602 -0.91862,-0.8079 -1.37793,-1.804 -1.37793,-2.9883 0,-1.2174 0.51465,-2.2301 1.54395,-3.0381 1.39453,-1.1067 3.2207,-1.6601 5.47852,-1.6601 0.78579,0 1.5384,0.077 2.25781,0.2324 0.73045,0.1439 1.42772,0.3708 2.0918,0.6807 0.21027,-0.155 0.40395,-0.2712 0.58105,-0.3487 0.18814,-0.077 0.35968,-0.1162 0.51465,-0.1162 0.46483,0 0.8522,0.1771 1.16211,0.5313 0.30988,0.3431 0.46482,0.9242 0.46484,1.7431 v 0.8301 c -2e-5,0.7416 -0.0886,1.2452 -0.26562,1.5108 -0.35419,0.5091 -0.83563,0.7637 -1.44434,0.7636 -0.40952,10e-5 -0.76922,-0.1272 -1.0791,-0.3818 -0.30991,-0.2545 -0.50913,-0.5921 -0.59766,-1.0127"
         style="font-variant:normal;font-weight:bold;font-stretch:normal;font-size:34px;font-family:'Courier New';-inkscape-font-specification:'Courier New Bold'"
         id="path4774"
         inkscape:connector-curvature="0" />
      <path
         d="m 566.20264,1015.9521 c -2e-5,0.642 -0.2269,1.1788 -0.68067,1.6104 -0.45379,0.4317 -1.07911,0.6475 -1.87597,0.6475 -0.79689,0 -1.42221,-0.2158 -1.87598,-0.6475 -0.45378,-0.4316 -0.68067,-0.9684 -0.68066,-1.6104 -1e-5,-0.6419 0.22688,-1.1786 0.68066,-1.6103 0.45377,-0.4316 1.07909,-0.6474 1.87598,-0.6475 0.79686,10e-5 1.42218,0.2159 1.87597,0.6475 0.45377,0.4317 0.68065,0.9684 0.68067,1.6103 m 0.0332,11.1397 c -1e-5,0.6419 -0.2269,1.1787 -0.68066,1.6103 -0.45379,0.4317 -1.07912,0.6475 -1.87598,0.6475 -0.79689,0 -1.42221,-0.2158 -1.87598,-0.6475 -0.45378,-0.4316 -0.68067,-0.9684 -0.68066,-1.6103 -10e-6,-0.6419 0.22688,-1.1787 0.68066,-1.6104 0.45377,-0.4316 1.07909,-0.6474 1.87598,-0.6474 0.79686,0 1.42219,0.2158 1.87598,0.6474 0.45376,0.4317 0.68065,0.9685 0.68066,1.6104"
         style="font-variant:normal;font-weight:bold;font-stretch:normal;font-size:34px;font-family:'Courier New';-inkscape-font-specification:'Courier New Bold'"
         id="path4776"
         inkscape:connector-curvature="0" />
      <path
         d="m 591.03857,1007.668 -10.90722,23.5078 c -0.2767,0.5866 -0.52572,0.9684 -0.74707,1.1455 -0.28777,0.2324 -0.6364,0.3486 -1.0459,0.3486 -0.46485,0 -0.86882,-0.166 -1.21192,-0.498 -0.33203,-0.3321 -0.49804,-0.7084 -0.49804,-1.1289 0,-0.2989 0.13281,-0.736 0.39844,-1.3116 l 10.94043,-23.4912 c 0.27667,-0.5865 0.52016,-0.9684 0.73046,-1.1455 0.29882,-0.2324 0.64745,-0.3486 1.0459,-0.3486 0.46483,0 0.86327,0.166 1.19531,0.498 0.33202,0.321 0.49803,0.6918 0.49805,1.1123 -2e-5,0.2989 -0.13283,0.7361 -0.39844,1.3116"
         style="font-variant:normal;font-weight:bold;font-stretch:normal;font-size:34px;font-family:'Courier New';-inkscape-font-specification:'Courier New Bold'"
         id="path4778"
         inkscape:connector-curvature="0" />
      <path
         d="m 611.42529,1007.668 -10.90722,23.5078 c -0.2767,0.5866 -0.52573,0.9684 -0.74707,1.1455 -0.28777,0.2324 -0.6364,0.3486 -1.0459,0.3486 -0.46485,0 -0.86882,-0.166 -1.21192,-0.498 -0.33203,-0.3321 -0.49805,-0.7084 -0.49804,-1.1289 -10e-6,-0.2989 0.13281,-0.736 0.39843,-1.3116 l 10.94043,-23.4912 c 0.27668,-0.5865 0.52017,-0.9684 0.73047,-1.1455 0.29882,-0.2324 0.64745,-0.3486 1.0459,-0.3486 0.46483,0 0.86327,0.166 1.19531,0.498 0.33202,0.321 0.49803,0.6918 0.49805,1.1123 -2e-5,0.2989 -0.13283,0.7361 -0.39844,1.3116"
         style="font-variant:normal;font-weight:bold;font-stretch:normal;font-size:34px;font-family:'Courier New';-inkscape-font-specification:'Courier New Bold'"
         id="path4780"
         inkscape:connector-curvature="0" />
      <path
         d="m 630.10205,1014.292 c 0.40949,-0.3874 0.83006,-0.581 1.26172,-0.5811 0.48696,10e-5 0.8854,0.1771 1.19531,0.5313 0.32095,0.3431 0.48143,0.9186 0.48145,1.7265 v 2.1915 c -2e-5,0.819 -0.1605,1.4 -0.48145,1.7431 -0.30991,0.3431 -0.71942,0.5147 -1.22851,0.5147 -0.46486,0 -0.85777,-0.1328 -1.17871,-0.3985 -0.23244,-0.1992 -0.41506,-0.6031 -0.54786,-1.2119 -0.13282,-0.6198 -0.45379,-1.0791 -0.96289,-1.3779 -0.89649,-0.5313 -2.042,-0.7969 -3.43652,-0.7969 -1.60483,0 -2.89421,0.4704 -3.86816,1.4111 -0.9629,0.9408 -1.44435,2.1306 -1.44434,3.5694 -1e-5,1.3281 0.46484,2.3795 1.39453,3.1543 0.92968,0.7637 2.47362,1.1455 4.63184,1.1455 1.41665,0 2.57323,-0.1439 3.46972,-0.4317 0.53124,-0.177 1.03482,-0.4759 1.51075,-0.8964 0.47589,-0.4317 0.90753,-0.6475 1.29492,-0.6475 0.46482,0 0.86326,0.1716 1.19531,0.5146 0.34308,0.3432 0.51463,0.7471 0.51465,1.212 -2e-5,0.7526 -0.51467,1.4664 -1.54395,2.1416 -1.52736,1.0071 -3.76303,1.5107 -6.70703,1.5107 -2.64519,0 -4.70378,-0.5478 -6.17578,-1.6435 -1.99219,-1.4721 -2.98828,-3.4864 -2.98828,-6.043 0,-2.4238 0.80794,-4.4271 2.42383,-6.0098 1.61588,-1.5937 3.72427,-2.3906 6.32519,-2.3906 0.94075,0 1.81509,0.088 2.62305,0.2656 0.80793,0.1771 1.555,0.4427 2.24121,0.7969"
         style="font-variant:normal;font-weight:bold;font-stretch:normal;font-size:34px;font-family:'Courier New';-inkscape-font-specification:'Courier New Bold'"
         id="path4782"
         inkscape:connector-curvature="0" />
      <path
         d="m 644.479,1013.6777 v 2.125 c 1.42773,-1.0292 2.5511,-1.7154 3.37012,-2.0586 0.83007,-0.343 1.6048,-0.5146 2.32422,-0.5146 1.10675,0 2.18032,0.4095 3.2207,1.2285 0.70832,0.5534 1.06248,1.1179 1.0625,1.6934 -2e-5,0.487 -0.17157,0.902 -0.51465,1.2451 -0.33205,0.332 -0.73602,0.498 -1.21191,0.498 -0.42059,0 -0.8633,-0.2102 -1.32812,-0.6308 -0.46486,-0.4206 -0.8799,-0.6309 -1.24512,-0.6309 -0.47593,0 -1.18979,0.2989 -2.1416,0.8965 -0.94077,0.5977 -2.11948,1.4941 -3.53614,2.6894 v 5.1299 h 4.84766 c 0.819,0 1.40005,0.1605 1.74316,0.4815 0.35415,0.3099 0.53124,0.7194 0.53125,1.2285 -1e-5,0.498 -0.1771,0.9075 -0.53125,1.2285 -0.34311,0.3099 -0.92416,0.4649 -1.74316,0.4649 h -10.27637 c -0.81901,0 -1.4056,-0.155 -1.75976,-0.4649 -0.3431,-0.321 -0.51465,-0.736 -0.51465,-1.2451 0,-0.4981 0.17155,-0.902 0.51465,-1.2119 0.35416,-0.321 0.94075,-0.4815 1.75976,-0.4815 h 2.02539 v -8.2675 h -1.22851 c -0.81902,0 -1.4056,-0.155 -1.75977,-0.4649 -0.3431,-0.3209 -0.51465,-0.736 -0.51465,-1.2451 0,-0.498 0.17155,-0.902 0.51465,-1.2119 0.35417,-0.321 0.94075,-0.4815 1.75977,-0.4815 h 4.63183"
         style="font-variant:normal;font-weight:bold;font-stretch:normal;font-size:34px;font-family:'Courier New';-inkscape-font-specification:'Courier New Bold'"
         id="path4784"
         inkscape:connector-curvature="0" />
      <path
         d="m 674.11279,1022.9414 h -13.96191 c 0.35416,0.8854 0.97949,1.5993 1.87598,2.1416 0.90754,0.5423 2.13052,0.8135 3.66894,0.8135 1.26171,0 2.93846,-0.2712 5.03027,-0.8135 0.86327,-0.2213 1.46092,-0.332 1.79297,-0.332 0.45376,0 0.8356,0.1605 1.14551,0.4814 0.30988,0.321 0.46483,0.725 0.46484,1.2119 -10e-6,0.4427 -0.16603,0.819 -0.49804,1.1289 -0.44273,0.4095 -1.52183,0.8025 -3.23731,1.1788 -1.71551,0.3652 -3.36459,0.5478 -4.94726,0.5478 -2.72267,0 -4.903,-0.7692 -6.54102,-2.3076 -1.62695,-1.5384 -2.44043,-3.431 -2.44043,-5.6777 0,-2.3907 0.87988,-4.333 2.63965,-5.8272 1.77083,-1.5052 3.80728,-2.2578 6.10938,-2.2578 1.38345,0 2.6507,0.2435 3.80175,0.7305 1.1621,0.487 2.02538,1.0127 2.58985,1.5771 0.79685,0.819 1.45538,1.8317 1.97558,3.0381 0.35415,0.8412 0.53123,1.8151 0.53125,2.9219 v 1.4443 m -3.76855,-3.4033 c -0.5202,-0.974 -1.20086,-1.6989 -2.04199,-2.1748 -0.84116,-0.487 -1.84279,-0.7305 -3.00489,-0.7305 -1.15105,0 -2.14714,0.2435 -2.98828,0.7305 -0.84115,0.4759 -1.52735,1.2008 -2.05859,2.1748 h 10.09375"
         style="font-variant:normal;font-weight:bold;font-stretch:normal;font-size:34px;font-family:'Courier New';-inkscape-font-specification:'Courier New Bold'"
         id="path4786"
         inkscape:connector-curvature="0" />
      <path
         d="m 689.021,1028.752 v -0.7969 c -0.85223,0.4538 -1.79298,0.7913 -2.82227,1.0127 -1.02931,0.2324 -1.96453,0.3486 -2.80566,0.3486 -1.82618,0 -3.30925,-0.4814 -4.44922,-1.4443 -1.13998,-0.974 -1.70996,-2.0476 -1.70996,-3.2207 0,-1.4278 0.72493,-2.7504 2.1748,-3.9678 1.46093,-1.2285 3.47525,-1.8428 6.04297,-1.8428 1.02929,0 2.21906,0.1107 3.56934,0.3321 v -0.8135 c -2e-5,-0.5091 -0.22137,-0.9242 -0.66407,-1.2451 -0.43165,-0.321 -1.26173,-0.4815 -2.49023,-0.4815 -1.00717,0 -2.31316,0.1992 -3.91797,0.5977 -0.59766,0.1439 -1.0625,0.2158 -1.39453,0.2158 -0.45378,0 -0.84115,-0.1605 -1.16211,-0.4815 -0.3099,-0.332 -0.46485,-0.7525 -0.46484,-1.2617 -10e-6,-0.2877 0.0553,-0.5367 0.16601,-0.747 0.11068,-0.2103 0.26562,-0.3763 0.46485,-0.4981 0.19921,-0.1328 0.61425,-0.2877 1.24511,-0.4648 0.84114,-0.2324 1.69889,-0.4151 2.57324,-0.5479 0.87435,-0.1439 1.66569,-0.2158 2.37403,-0.2158 2.11392,0 3.75194,0.4593 4.91406,1.3779 1.17316,0.9076 1.75975,2.1527 1.75977,3.7354 v 7.0058 h 0.58105 c 0.81899,0 1.40005,0.1605 1.74317,0.4815 0.35414,0.3099 0.53123,0.7194 0.53125,1.2285 -2e-5,0.498 -0.17711,0.9075 -0.53125,1.2285 -0.34312,0.3099 -0.92418,0.4649 -1.74317,0.4649 H 689.021 m 0,-6.0928 c -1.36134,-0.2656 -2.61753,-0.3985 -3.76856,-0.3985 -1.38347,0 -2.57325,0.3376 -3.56933,1.0127 -0.6198,0.4317 -0.9297,0.8689 -0.92969,1.3116 -10e-6,0.3209 0.14941,0.581 0.44824,0.7802 0.55338,0.3653 1.31152,0.5479 2.27441,0.5479 0.81901,0 1.74316,-0.1605 2.77247,-0.4815 1.04035,-0.3209 1.9645,-0.7581 2.77246,-1.3115 v -1.4609"
         style="font-variant:normal;font-weight:bold;font-stretch:normal;font-size:34px;font-family:'Courier New';-inkscape-font-specification:'Courier New Bold'"
         id="path4788"
         inkscape:connector-curvature="0" />
      <path
         d="m 705.50635,1017.0811 v 6.8232 c -10e-6,0.7305 0.1494,1.2119 0.44824,1.4443 0.46483,0.3653 1.29491,0.5479 2.49023,0.5479 1.73762,0 3.34244,-0.3708 4.81446,-1.1123 0.56443,-0.2878 1.00714,-0.4317 1.32812,-0.4317 0.44269,0 0.82453,0.1661 1.14551,0.4981 0.33201,0.332 0.49803,0.736 0.49805,1.2119 -2e-5,0.4427 -0.17711,0.8245 -0.53125,1.1455 -0.54234,0.5202 -1.61591,1.0016 -3.22071,1.4443 -1.59376,0.4317 -2.93849,0.6475 -4.03418,0.6475 -2.11394,0 -3.70215,-0.4538 -4.76464,-1.3613 -1.05144,-0.9186 -1.57716,-2.042 -1.57715,-3.3701 v -7.4873 h -1.22852 c -0.81901,0 -1.4056,-0.155 -1.75976,-0.4649 -0.34311,-0.3209 -0.51465,-0.736 -0.51465,-1.2451 0,-0.498 0.17154,-0.902 0.51465,-1.2119 0.35416,-0.321 0.94075,-0.4815 1.75976,-0.4815 h 1.22852 v -3.0713 c -10e-6,-0.8189 0.15494,-1.4 0.46484,-1.7431 0.32096,-0.3542 0.736,-0.5312 1.24512,-0.5313 0.49804,10e-5 0.90201,0.1771 1.21191,0.5313 0.32096,0.3431 0.48144,0.9242 0.48145,1.7431 v 3.0713 h 6.29199 c 0.81899,0 1.40005,0.1605 1.74316,0.4815 0.35415,0.3099 0.53124,0.7194 0.53125,1.2285 -1e-5,0.4981 -0.1771,0.9076 -0.53125,1.2285 -0.34311,0.3099 -0.92417,0.4649 -1.74316,0.4649 h -6.29199"
         style="font-variant:normal;font-weight:bold;font-stretch:normal;font-size:34px;font-family:'Courier New';-inkscape-font-specification:'Courier New Bold'"
         id="path4790"
         inkscape:connector-curvature="0" />
      <path
         d="m 727.95166,1007.2197 v 3.6026 h -4.05078 v -3.6026 h 4.05078 m 0.46484,6.458 v 11.6709 h 4.08399 c 0.81899,0 1.40005,0.1605 1.74316,0.4815 0.35415,0.3099 0.53123,0.7194 0.53125,1.2285 -2e-5,0.498 -0.1771,0.9075 -0.53125,1.2285 -0.34311,0.3099 -0.92417,0.4649 -1.74316,0.4649 H 720.9292 c -0.81901,0 -1.4056,-0.155 -1.75977,-0.4649 -0.3431,-0.321 -0.51465,-0.736 -0.51464,-1.2451 -1e-5,-0.4981 0.17154,-0.902 0.51464,-1.2119 0.35417,-0.321 0.94076,-0.4815 1.75977,-0.4815 h 4.08398 v -8.2675 h -2.73925 c -0.80795,0 -1.38901,-0.155 -1.74317,-0.4649 -0.35417,-0.3209 -0.53125,-0.736 -0.53125,-1.2451 0,-0.498 0.17155,-0.902 0.51465,-1.2119 0.35416,-0.321 0.94075,-0.4815 1.75977,-0.4815 h 6.14257"
         style="font-variant:normal;font-weight:bold;font-stretch:normal;font-size:34px;font-family:'Courier New';-inkscape-font-specification:'Courier New Bold'"
         id="path4792"
         inkscape:connector-curvature="0" />
      <path
         d="m 747.14307,1024.6182 3.66894,-7.5371 c -0.90756,0 -1.48862,-0.077 -1.74316,-0.2325 -0.5534,-0.3431 -0.83009,-0.8356 -0.83008,-1.4775 -1e-5,-0.498 0.17154,-0.902 0.51465,-1.2119 0.35415,-0.321 0.94074,-0.4815 1.75976,-0.4815 h 4.66504 c 0.81899,0 1.40005,0.1605 1.74317,0.4815 0.35414,0.3099 0.53123,0.7194 0.53125,1.2285 -2e-5,0.4981 -0.17711,0.9076 -0.53125,1.2285 -0.34312,0.3099 -0.92418,0.4649 -1.74317,0.4649 h -0.56445 l -5.69434,11.6709 h -3.55273 l -5.69434,-11.6709 h -0.48144 c -0.81901,0 -1.4056,-0.155 -1.75977,-0.4649 -0.3431,-0.3209 -0.51465,-0.736 -0.51465,-1.2451 0,-0.498 0.17155,-0.902 0.51465,-1.2119 0.35417,-0.321 0.94076,-0.4815 1.75977,-0.4815 h 4.56543 c 0.80793,0 1.38345,0.1605 1.72656,0.4815 0.35416,0.3099 0.53124,0.7194 0.53125,1.2285 -10e-6,0.6309 -0.26563,1.1123 -0.79687,1.4443 -0.26564,0.1661 -0.85776,0.2491 -1.77637,0.2491 l 3.70215,7.5371"
         style="font-variant:normal;font-weight:bold;font-stretch:normal;font-size:34px;font-family:'Courier New';-inkscape-font-specification:'Courier New Bold'"
         id="path4794"
         inkscape:connector-curvature="0" />
      <path
         d="m 776.04639,1022.9414 h -13.96192 c 0.35416,0.8854 0.97949,1.5993 1.87598,2.1416 0.90754,0.5423 2.13052,0.8135 3.66894,0.8135 1.26171,0 2.93847,-0.2712 5.03028,-0.8135 0.86326,-0.2213 1.46092,-0.332 1.79297,-0.332 0.45376,0 0.83559,0.1605 1.1455,0.4814 0.30988,0.321 0.46483,0.725 0.46485,1.2119 -2e-5,0.4427 -0.16604,0.819 -0.49805,1.1289 -0.44272,0.4095 -1.52183,0.8025 -3.2373,1.1788 -1.71551,0.3652 -3.3646,0.5478 -4.94727,0.5478 -2.72266,0 -4.903,-0.7692 -6.54101,-2.3076 -1.62696,-1.5384 -2.44044,-3.431 -2.44043,-5.6777 -10e-6,-2.3907 0.87988,-4.333 2.63964,-5.8272 1.77083,-1.5052 3.80729,-2.2578 6.10938,-2.2578 1.38345,0 2.6507,0.2435 3.80176,0.7305 1.16209,0.487 2.02537,1.0127 2.58984,1.5771 0.79686,0.819 1.45539,1.8317 1.97559,3.0381 0.35414,0.8412 0.53123,1.8151 0.53125,2.9219 v 1.4443 m -3.76856,-3.4033 c -0.52019,-0.974 -1.20086,-1.6989 -2.04199,-2.1748 -0.84116,-0.487 -1.84278,-0.7305 -3.00488,-0.7305 -1.15105,0 -2.14715,0.2435 -2.98828,0.7305 -0.84116,0.4759 -1.52735,1.2008 -2.0586,2.1748 h 10.09375"
         style="font-variant:normal;font-weight:bold;font-stretch:normal;font-size:34px;font-family:'Courier New';-inkscape-font-specification:'Courier New Bold'"
         id="path4796"
         inkscape:connector-curvature="0" />
      <path
         d="m 793.1958,1014.292 c 0.40949,-0.3874 0.83006,-0.581 1.26172,-0.5811 0.48696,10e-5 0.8854,0.1771 1.19531,0.5313 0.32095,0.3431 0.48143,0.9186 0.48145,1.7265 v 2.1915 c -2e-5,0.819 -0.1605,1.4 -0.48145,1.7431 -0.30991,0.3431 -0.71942,0.5147 -1.22851,0.5147 -0.46486,0 -0.85777,-0.1328 -1.17871,-0.3985 -0.23244,-0.1992 -0.41506,-0.6031 -0.54786,-1.2119 -0.13282,-0.6198 -0.45379,-1.0791 -0.96289,-1.3779 -0.89649,-0.5313 -2.042,-0.7969 -3.43652,-0.7969 -1.60483,0 -2.89421,0.4704 -3.86816,1.4111 -0.9629,0.9408 -1.44435,2.1306 -1.44434,3.5694 -1e-5,1.3281 0.46484,2.3795 1.39453,3.1543 0.92968,0.7637 2.47362,1.1455 4.63184,1.1455 1.41665,0 2.57323,-0.1439 3.46972,-0.4317 0.53124,-0.177 1.03482,-0.4759 1.51075,-0.8964 0.47589,-0.4317 0.90753,-0.6475 1.29492,-0.6475 0.46482,0 0.86326,0.1716 1.19531,0.5146 0.34308,0.3432 0.51463,0.7471 0.51465,1.212 -2e-5,0.7526 -0.51467,1.4664 -1.54395,2.1416 -1.52736,1.0071 -3.76303,1.5107 -6.70703,1.5107 -2.64519,0 -4.70378,-0.5478 -6.17578,-1.6435 -1.99219,-1.4721 -2.98828,-3.4864 -2.98828,-6.043 0,-2.4238 0.80794,-4.4271 2.42383,-6.0098 1.61588,-1.5937 3.72427,-2.3906 6.32519,-2.3906 0.94075,0 1.81509,0.088 2.62305,0.2656 0.80793,0.1771 1.555,0.4427 2.24121,0.7969"
         style="font-variant:normal;font-weight:bold;font-stretch:normal;font-size:34px;font-family:'Courier New';-inkscape-font-specification:'Courier New Bold'"
         id="path4798"
         inkscape:connector-curvature="0" />
      <path
         d="m 817.11865,1021.4971 c -2e-5,1.306 -0.36525,2.5732 -1.0957,3.8017 -0.71942,1.2175 -1.79852,2.1914 -3.23731,2.9219 -1.42774,0.7194 -2.92188,1.0791 -4.48242,1.0791 -1.54949,0 -3.03256,-0.3542 -4.44922,-1.0625 -1.41667,-0.7194 -2.49577,-1.6934 -3.2373,-2.9219 -0.74154,-1.2285 -1.11231,-2.5123 -1.11231,-3.8515 0,-1.3614 0.3763,-2.695 1.12891,-4.001 0.7526,-1.3171 1.8317,-2.3519 3.23731,-3.1045 1.41665,-0.7526 2.89419,-1.1289 4.43261,-1.1289 1.54947,0 3.03808,0.3874 4.46582,1.1621 1.43879,0.7637 2.52342,1.7985 3.25391,3.1045 0.73045,1.2949 1.09568,2.6286 1.0957,4.001 m -3.40332,0.017 c -10e-6,-1.0957 -0.39292,-2.1029 -1.17871,-3.0215 -1.07358,-1.2396 -2.48471,-1.8594 -4.2334,-1.8594 -1.53842,0 -2.82227,0.4925 -3.85156,1.4776 -1.0293,0.985 -1.54395,2.125 -1.54395,3.4199 0,1.0625 0.52018,2.0586 1.56055,2.9883 1.04036,0.9186 2.31868,1.3779 3.83496,1.3779 1.52733,0 2.81119,-0.4593 3.85157,-1.3779 1.04034,-0.9297 1.56053,-1.9314 1.56054,-3.0049"
         style="font-variant:normal;font-weight:bold;font-stretch:normal;font-size:34px;font-family:'Courier New';-inkscape-font-specification:'Courier New Bold'"
         id="path4800"
         inkscape:connector-curvature="0" />
      <path
         d="m 823.41064,1013.6777 v 0.9629 c 0.55338,-0.5423 1.05143,-0.913 1.49415,-1.1123 0.45376,-0.2103 0.97395,-0.3154 1.56054,-0.3154 0.49804,0 0.99055,0.1218 1.47754,0.3652 0.48697,0.2435 0.96288,0.6088 1.42774,1.0957 0.58657,-0.4869 1.17869,-0.8466 1.77636,-1.0791 0.60871,-0.2434 1.2285,-0.3652 1.85938,-0.3652 1.2617,0 2.28546,0.3376 3.07129,1.0127 1.04034,0.8854 1.56052,2.0475 1.56054,3.4863 v 7.6201 c 0.70832,0 1.23403,0.1605 1.57715,0.4815 0.34308,0.3209 0.51463,0.7304 0.51465,1.2285 -2e-5,0.498 -0.17157,0.9075 -0.51465,1.2285 -0.34312,0.3099 -0.92417,0.4649 -1.74316,0.4649 h -3.23731 v -10.7413 c -10e-6,-0.5201 -0.0941,-0.8798 -0.28222,-1.0791 -0.18817,-0.1992 -0.47593,-0.2988 -0.86328,-0.2988 -0.37632,0 -0.72495,0.1 -1.0459,0.2988 -0.40952,0.2767 -0.90757,0.7969 -1.49414,1.5606 v 6.8564 c 0.70832,0 1.23403,0.1605 1.57714,0.4815 0.34309,0.3209 0.51464,0.7304 0.51465,1.2285 -10e-6,0.498 -0.17156,0.9075 -0.51465,1.2285 -0.34311,0.3099 -0.92416,0.4649 -1.74316,0.4649 h -3.2373 v -10.7413 c -10e-6,-0.5091 -0.0996,-0.8632 -0.29883,-1.0625 -0.18816,-0.2102 -0.47592,-0.3154 -0.86328,-0.3154 -0.39845,0 -0.79135,0.1273 -1.17871,0.3818 -0.38738,0.2435 -0.85222,0.7361 -1.39454,1.4776 v 6.8564 c 0.70833,0 1.23405,0.1605 1.57715,0.4815 0.35416,0.3209 0.53125,0.7304 0.53125,1.2285 0,0.498 -0.17709,0.9075 -0.53125,1.2285 -0.3431,0.3099 -0.92416,0.4649 -1.74316,0.4649 h -3.07129 c -0.81901,0 -1.40007,-0.155 -1.74316,-0.4649 -0.35417,-0.321 -0.53125,-0.736 -0.53125,-1.2451 0,-0.4981 0.17155,-0.902 0.51464,-1.2119 0.3431,-0.321 0.87435,-0.4815 1.59375,-0.4815 v -8.2675 c -0.7194,0 -1.25065,-0.1605 -1.59375,-0.4815 -0.34309,-0.3209 -0.51464,-0.7304 -0.51464,-1.2285 0,-0.498 0.17708,-0.902 0.53125,-1.2119 0.34309,-0.321 0.92415,-0.4815 1.74316,-0.4815 h 3.2373"
         style="font-variant:normal;font-weight:bold;font-stretch:normal;font-size:34px;font-family:'Courier New';-inkscape-font-specification:'Courier New Bold'"
         id="path4802"
         inkscape:connector-curvature="0" />
      <path
         d="m 843.79736,1013.6777 v 0.9629 c 0.55338,-0.5423 1.05143,-0.913 1.49414,-1.1123 0.45377,-0.2103 0.97395,-0.3154 1.56055,-0.3154 0.49804,0 0.99055,0.1218 1.47754,0.3652 0.48697,0.2435 0.96288,0.6088 1.42773,1.0957 0.58658,-0.4869 1.1787,-0.8466 1.77637,-1.0791 0.60871,-0.2434 1.2285,-0.3652 1.85938,-0.3652 1.2617,0 2.28546,0.3376 3.07129,1.0127 1.04034,0.8854 1.56052,2.0475 1.56054,3.4863 v 7.6201 c 0.70832,0 1.23403,0.1605 1.57715,0.4815 0.34308,0.3209 0.51463,0.7304 0.51465,1.2285 -2e-5,0.498 -0.17157,0.9075 -0.51465,1.2285 -0.34312,0.3099 -0.92417,0.4649 -1.74316,0.4649 h -3.23731 v -10.7413 c -10e-6,-0.5201 -0.0941,-0.8798 -0.28222,-1.0791 -0.18817,-0.1992 -0.47593,-0.2988 -0.86329,-0.2988 -0.37631,0 -0.72494,0.1 -1.04589,0.2988 -0.40952,0.2767 -0.90757,0.7969 -1.49414,1.5606 v 6.8564 c 0.70832,0 1.23403,0.1605 1.57714,0.4815 0.34309,0.3209 0.51464,0.7304 0.51465,1.2285 -10e-6,0.498 -0.17156,0.9075 -0.51465,1.2285 -0.34311,0.3099 -0.92416,0.4649 -1.74316,0.4649 h -3.23731 v -10.7413 c 0,-0.5091 -0.0996,-0.8632 -0.29882,-1.0625 -0.18816,-0.2102 -0.47592,-0.3154 -0.86328,-0.3154 -0.39845,0 -0.79135,0.1273 -1.17872,0.3818 -0.38737,0.2435 -0.85221,0.7361 -1.39453,1.4776 v 6.8564 c 0.70833,0 1.23405,0.1605 1.57715,0.4815 0.35416,0.3209 0.53124,0.7304 0.53125,1.2285 -10e-6,0.498 -0.17709,0.9075 -0.53125,1.2285 -0.3431,0.3099 -0.92416,0.4649 -1.74316,0.4649 h -3.07129 c -0.81901,0 -1.40007,-0.155 -1.74317,-0.4649 -0.35416,-0.321 -0.53124,-0.736 -0.53125,-1.2451 1e-5,-0.4981 0.17155,-0.902 0.51465,-1.2119 0.3431,-0.321 0.87435,-0.4815 1.59375,-0.4815 v -8.2675 c -0.7194,0 -1.25065,-0.1605 -1.59375,-0.4815 -0.3431,-0.3209 -0.51464,-0.7304 -0.51465,-1.2285 1e-5,-0.498 0.17709,-0.902 0.53125,-1.2119 0.3431,-0.321 0.92416,-0.4815 1.74317,-0.4815 h 3.2373"
         style="font-variant:normal;font-weight:bold;font-stretch:normal;font-size:34px;font-family:'Courier New';-inkscape-font-specification:'Courier New Bold'"
         id="path4804"
         inkscape:connector-curvature="0" />
      <path
         d="m 878.27881,1021.4971 c -2e-5,1.306 -0.36525,2.5732 -1.0957,3.8017 -0.71942,1.2175 -1.79852,2.1914 -3.23731,2.9219 -1.42775,0.7194 -2.92189,1.0791 -4.48242,1.0791 -1.54949,0 -3.03256,-0.3542 -4.44922,-1.0625 -1.41667,-0.7194 -2.49577,-1.6934 -3.2373,-2.9219 -0.74154,-1.2285 -1.11231,-2.5123 -1.11231,-3.8515 0,-1.3614 0.3763,-2.695 1.12891,-4.001 0.7526,-1.3171 1.8317,-2.3519 3.2373,-3.1045 1.41666,-0.7526 2.8942,-1.1289 4.43262,-1.1289 1.54947,0 3.03807,0.3874 4.46582,1.1621 1.43879,0.7637 2.52342,1.7985 3.25391,3.1045 0.73045,1.2949 1.09568,2.6286 1.0957,4.001 m -3.40332,0.017 c -2e-5,-1.0957 -0.39292,-2.1029 -1.17871,-3.0215 -1.07358,-1.2396 -2.48472,-1.8594 -4.2334,-1.8594 -1.53842,0 -2.82227,0.4925 -3.85156,1.4776 -1.02931,0.985 -1.54395,2.125 -1.54395,3.4199 0,1.0625 0.52018,2.0586 1.56055,2.9883 1.04036,0.9186 2.31867,1.3779 3.83496,1.3779 1.52733,0 2.81118,-0.4593 3.85156,-1.3779 1.04035,-0.9297 1.56053,-1.9314 1.56055,-3.0049"
         style="font-variant:normal;font-weight:bold;font-stretch:normal;font-size:34px;font-family:'Courier New';-inkscape-font-specification:'Courier New Bold'"
         id="path4806"
         inkscape:connector-curvature="0" />
      <path
         d="m 886.38037,1013.6777 v 1.1455 c 0.61979,-0.5312 1.30045,-0.9296 2.04199,-1.1953 0.7526,-0.2656 1.56607,-0.3984 2.44043,-0.3984 2.01431,0 3.60806,0.6253 4.78125,1.876 0.92967,0.9961 1.39452,2.3021 1.39453,3.9179 v 6.3252 c 0.71939,0 1.25064,0.1605 1.59375,0.4815 0.34308,0.3099 0.51463,0.7194 0.51465,1.2285 -2e-5,0.498 -0.1771,0.9075 -0.53125,1.2285 -0.34311,0.3099 -0.92417,0.4649 -1.74316,0.4649 h -3.07129 c -0.81902,0 -1.40561,-0.155 -1.75977,-0.4649 -0.34311,-0.321 -0.51466,-0.736 -0.51464,-1.2451 -2e-5,-0.4981 0.17153,-0.902 0.51464,-1.2119 0.34309,-0.321 0.87434,-0.4815 1.59375,-0.4815 v -6.4248 c -1e-5,-0.7415 -0.19923,-1.2838 -0.59765,-1.6269 -0.5202,-0.4427 -1.30047,-0.6641 -2.34082,-0.6641 -0.78582,0 -1.47755,0.155 -2.0752,0.4649 -0.58659,0.2988 -1.33366,0.9407 -2.24121,1.9257 v 6.3252 c 0.87434,0 1.43879,0.083 1.69336,0.2491 0.54231,0.332 0.81347,0.819 0.81348,1.4609 -10e-6,0.498 -0.1771,0.9075 -0.53125,1.2285 -0.34311,0.3099 -0.92416,0.4649 -1.74317,0.4649 h -3.86816 c -0.81901,0 -1.4056,-0.155 -1.75977,-0.4649 -0.3431,-0.321 -0.51465,-0.736 -0.51465,-1.2451 0,-0.6198 0.26563,-1.1012 0.79688,-1.4443 0.26562,-0.1661 0.83561,-0.2491 1.70996,-0.2491 v -8.2675 c -0.7194,0 -1.25065,-0.1605 -1.59375,-0.4815 -0.3431,-0.3209 -0.51465,-0.7304 -0.51465,-1.2285 0,-0.498 0.17155,-0.902 0.51465,-1.2119 0.35417,-0.321 0.94075,-0.4815 1.75977,-0.4815 h 3.2373"
         style="font-variant:normal;font-weight:bold;font-stretch:normal;font-size:34px;font-family:'Courier New';-inkscape-font-specification:'Courier New Bold'"
         id="path4808"
         inkscape:connector-curvature="0" />
      <path
         d="m 913.88916,1017.6621 c -0.5534,-0.3431 -1.13445,-0.5976 -1.74316,-0.7637 -0.60874,-0.177 -1.24513,-0.2656 -1.90918,-0.2656 -1.31707,0 -2.36297,0.2158 -3.1377,0.6475 -0.3431,0.1881 -0.51465,0.3929 -0.51465,0.6142 0,0.2546 0.23242,0.5036 0.69727,0.7471 0.35416,0.1771 1.1455,0.3486 2.37402,0.5146 2.2578,0.31 3.82942,0.6199 4.71485,0.9297 1.16209,0.4096 2.05857,1.0183 2.68945,1.8262 0.63084,0.808 0.94627,1.6602 0.94629,2.5567 -2e-5,1.2174 -0.5368,2.2356 -1.61035,3.0546 -1.53843,1.1843 -3.53615,1.7764 -5.99317,1.7764 -0.98503,0 -1.89812,-0.089 -2.73926,-0.2656 -0.83008,-0.166 -1.59375,-0.4151 -2.29101,-0.7471 -0.16602,0.1439 -0.34311,0.2546 -0.53125,0.332 -0.18816,0.078 -0.38184,0.1163 -0.58106,0.1163 -0.53125,0 -0.95736,-0.1716 -1.27832,-0.5147 -0.30989,-0.3542 -0.46484,-0.9408 -0.46484,-1.7598 v -1.1455 c 0,-0.819 0.15495,-1.4 0.46484,-1.7431 0.32096,-0.3542 0.736,-0.5313 1.24512,-0.5313 0.4095,0 0.7526,0.1162 1.0293,0.3486 0.27668,0.2214 0.4925,0.6088 0.64746,1.1622 0.52017,0.4427 1.1455,0.7802 1.87598,1.0127 0.73046,0.2213 1.5716,0.332 2.52343,0.332 1.56054,0 2.77245,-0.2435 3.63574,-0.7305 0.4095,-0.2435 0.61425,-0.498 0.61426,-0.7637 -10e-6,-0.4427 -0.29331,-0.8079 -0.87988,-1.0957 -0.5866,-0.2877 -1.79851,-0.5312 -3.63574,-0.7304 -2.73373,-0.2878 -4.5599,-0.8412 -5.47852,-1.6602 -0.91862,-0.8079 -1.37793,-1.804 -1.37793,-2.9883 0,-1.2174 0.51465,-2.2301 1.54395,-3.0381 1.39452,-1.1067 3.22069,-1.6601 5.47851,-1.6601 0.7858,0 1.5384,0.077 2.25782,0.2324 0.73045,0.1439 1.42772,0.3708 2.09179,0.6807 0.21027,-0.155 0.40396,-0.2712 0.58106,-0.3487 0.18813,-0.077 0.35968,-0.1162 0.51465,-0.1162 0.46482,0 0.85219,0.1771 1.16211,0.5313 0.30987,0.3431 0.46482,0.9242 0.46484,1.7431 v 0.8301 c -2e-5,0.7416 -0.0886,1.2452 -0.26563,1.5108 -0.35418,0.5091 -0.83562,0.7637 -1.44433,0.7636 -0.40952,10e-5 -0.76922,-0.1272 -1.0791,-0.3818 -0.30991,-0.2545 -0.50913,-0.5921 -0.59766,-1.0127"
         style="font-variant:normal;font-weight:bold;font-stretch:normal;font-size:34px;font-family:'Courier New';-inkscape-font-specification:'Courier New Bold'"
         id="path4810"
         inkscape:connector-curvature="0" />
      <path
         d="m 933.19678,1027.042 c -2e-5,0.6419 -0.2269,1.1787 -0.68067,1.6103 -0.45378,0.4317 -1.07911,0.6475 -1.87597,0.6475 -0.79689,0 -1.42221,-0.2158 -1.87598,-0.6475 -0.45378,-0.4316 -0.68067,-0.9684 -0.68066,-1.6103 -10e-6,-0.6419 0.22688,-1.1787 0.68066,-1.6104 0.45377,-0.4316 1.07909,-0.6474 1.87598,-0.6474 0.79686,0 1.42219,0.2158 1.87597,0.6474 0.45377,0.4317 0.68065,0.9685 0.68067,1.6104"
         style="font-variant:normal;font-weight:bold;font-stretch:normal;font-size:34px;font-family:'Courier New';-inkscape-font-specification:'Courier New Bold'"
         id="path4812"
         inkscape:connector-curvature="0" />
      <path
         d="m 959.82568,1021.4971 c -2e-5,1.306 -0.36525,2.5732 -1.0957,3.8017 -0.71942,1.2175 -1.79852,2.1914 -3.2373,2.9219 -1.42775,0.7194 -2.92189,1.0791 -4.48243,1.0791 -1.54948,0 -3.03256,-0.3542 -4.44921,-1.0625 -1.41668,-0.7194 -2.49578,-1.6934 -3.23731,-2.9219 -0.74154,-1.2285 -1.11231,-2.5123 -1.1123,-3.8515 -10e-6,-1.3614 0.3763,-2.695 1.1289,-4.001 0.7526,-1.3171 1.8317,-2.3519 3.23731,-3.1045 1.41666,-0.7526 2.89419,-1.1289 4.43261,-1.1289 1.54947,0 3.03808,0.3874 4.46582,1.1621 1.43879,0.7637 2.52342,1.7985 3.25391,3.1045 0.73045,1.2949 1.09568,2.6286 1.0957,4.001 m -3.40332,0.017 c -10e-6,-1.0957 -0.39292,-2.1029 -1.17871,-3.0215 -1.07358,-1.2396 -2.48471,-1.8594 -4.2334,-1.8594 -1.53842,0 -2.82227,0.4925 -3.85156,1.4776 -1.0293,0.985 -1.54395,2.125 -1.54394,3.4199 -10e-6,1.0625 0.52017,2.0586 1.56054,2.9883 1.04036,0.9186 2.31868,1.3779 3.83496,1.3779 1.52734,0 2.81119,-0.4593 3.85157,-1.3779 1.04035,-0.9297 1.56053,-1.9314 1.56054,-3.0049"
         style="font-variant:normal;font-weight:bold;font-stretch:normal;font-size:34px;font-family:'Courier New';-inkscape-font-specification:'Courier New Bold'"
         id="path4814"
         inkscape:connector-curvature="0" />
      <path
         d="m 970.6665,1013.6777 v 2.125 c 1.42773,-1.0292 2.5511,-1.7154 3.37012,-2.0586 0.83007,-0.343 1.6048,-0.5146 2.32422,-0.5146 1.10675,0 2.18032,0.4095 3.2207,1.2285 0.70832,0.5534 1.06248,1.1179 1.0625,1.6934 -2e-5,0.487 -0.17157,0.902 -0.51465,1.2451 -0.33205,0.332 -0.73602,0.498 -1.21191,0.498 -0.42059,0 -0.8633,-0.2102 -1.32812,-0.6308 -0.46486,-0.4206 -0.8799,-0.6309 -1.24512,-0.6309 -0.47593,0 -1.18979,0.2989 -2.1416,0.8965 -0.94077,0.5977 -2.11948,1.4941 -3.53614,2.6894 v 5.1299 h 4.84766 c 0.819,0 1.40005,0.1605 1.74316,0.4815 0.35415,0.3099 0.53124,0.7194 0.53125,1.2285 -1e-5,0.498 -0.1771,0.9075 -0.53125,1.2285 -0.34311,0.3099 -0.92416,0.4649 -1.74316,0.4649 h -10.27637 c -0.81901,0 -1.4056,-0.155 -1.75976,-0.4649 -0.3431,-0.321 -0.51465,-0.736 -0.51465,-1.2451 0,-0.4981 0.17155,-0.902 0.51465,-1.2119 0.35416,-0.321 0.94075,-0.4815 1.75976,-0.4815 h 2.02539 v -8.2675 h -1.22851 c -0.81902,0 -1.4056,-0.155 -1.75977,-0.4649 -0.3431,-0.3209 -0.51465,-0.736 -0.51465,-1.2451 0,-0.498 0.17155,-0.902 0.51465,-1.2119 0.35417,-0.321 0.94075,-0.4815 1.75977,-0.4815 h 4.63183"
         style="font-variant:normal;font-weight:bold;font-stretch:normal;font-size:34px;font-family:'Courier New';-inkscape-font-specification:'Courier New Bold'"
         id="path4816"
         inkscape:connector-curvature="0" />
      <path
         d="m 995.50244,1014.6904 v -1.0127 h 3.98438 c 0.81898,0 1.40008,0.1605 1.74318,0.4815 0.3541,0.3099 0.5312,0.7194 0.5312,1.2285 0,0.4981 -0.1771,0.9076 -0.5312,1.2285 -0.3431,0.3099 -0.9242,0.4649 -1.74318,0.4649 h -0.58106 v 12.3847 c -2e-5,1.1953 -0.25457,2.2357 -0.76367,3.1211 -0.49806,0.8965 -1.26727,1.6657 -2.30762,2.3076 -1.04038,0.642 -2.21355,0.9629 -3.51953,0.9629 h -3.85156 c -0.81902,0 -1.40561,-0.1605 -1.75977,-0.4814 -0.3431,-0.3099 -0.51465,-0.7139 -0.51465,-1.2119 0,-0.5092 0.17155,-0.9242 0.51465,-1.2452 0.35416,-0.3099 0.94075,-0.4648 1.75977,-0.4648 h 3.75195 c 1.04035,0 1.8483,-0.2822 2.42383,-0.8467 0.57551,-0.5644 0.86327,-1.2783 0.86328,-2.1416 v -1.6601 c -0.75262,0.4869 -1.52182,0.8522 -2.30762,1.0957 -0.77475,0.2435 -1.57162,0.3652 -2.39062,0.3652 -2.31316,0 -4.25001,-0.7692 -5.81055,-2.3076 -1.56055,-1.5495 -2.34082,-3.4587 -2.34082,-5.7276 0,-2.2799 0.78027,-4.1891 2.34082,-5.7275 1.56054,-1.5495 3.49739,-2.3242 5.81055,-2.3242 0.86327,0 1.68228,0.1273 2.45703,0.3818 0.7858,0.2435 1.53286,0.6198 2.24121,1.1289 m -0.0166,6.5244 c -1e-5,-1.2506 -0.46486,-2.3352 -1.39453,-3.2539 -0.91863,-0.9186 -2.0254,-1.3779 -3.32031,-1.3779 -1.29493,0 -2.40724,0.4593 -3.33692,1.3779 -0.91862,0.9187 -1.37793,2.0033 -1.37793,3.2539 0,1.2618 0.45931,2.3519 1.37793,3.2706 0.92968,0.9075 2.04199,1.3613 3.33692,1.3613 1.29491,0 2.40168,-0.4538 3.32031,-1.3613 0.92967,-0.9187 1.39452,-2.0088 1.39453,-3.2706"
         style="font-variant:normal;font-weight:bold;font-stretch:normal;font-size:34px;font-family:'Courier New';-inkscape-font-specification:'Courier New Bold'"
         id="path4818"
         inkscape:connector-curvature="0" />
      <path
         d="m 1019.1597,1007.668 -10.9073,23.5078 c -0.2767,0.5866 -0.5257,0.9684 -0.747,1.1455 -0.2878,0.2324 -0.6364,0.3486 -1.0459,0.3486 -0.4649,0 -0.8688,-0.166 -1.2119,-0.498 -0.3321,-0.3321 -0.4981,-0.7084 -0.4981,-1.1289 0,-0.2989 0.1328,-0.736 0.3984,-1.3116 l 10.9405,-23.4912 c 0.2767,-0.5865 0.5201,-0.9684 0.7304,-1.1455 0.2989,-0.2324 0.6475,-0.3486 1.0459,-0.3486 0.4649,0 0.8633,0.166 1.1954,0.498 0.332,0.321 0.498,0.6918 0.498,1.1123 0,0.2989 -0.1328,0.7361 -0.3984,1.3116"
         style="font-variant:normal;font-weight:bold;font-stretch:normal;font-size:34px;font-family:'Courier New';-inkscape-font-specification:'Courier New Bold'"
         id="path4820"
         inkscape:connector-curvature="0" />
      <path
         d="m 1034.2339,1007.2197 v 18.1289 h 4.084 c 0.819,0 1.4,0.1605 1.7431,0.4815 0.3542,0.3099 0.5313,0.7194 0.5313,1.2285 0,0.498 -0.1771,0.9075 -0.5313,1.2285 -0.3431,0.3099 -0.9241,0.4649 -1.7431,0.4649 h -11.5713 c -0.819,0 -1.4056,-0.155 -1.7598,-0.4649 -0.3431,-0.321 -0.5146,-0.736 -0.5146,-1.2451 0,-0.4981 0.1715,-0.902 0.5146,-1.2119 0.3542,-0.321 0.9408,-0.4815 1.7598,-0.4815 h 4.084 v -14.7256 h -2.7393 c -0.8079,10e-5 -1.389,-0.1549 -1.7432,-0.4648 -0.3541,-0.3209 -0.5312,-0.736 -0.5312,-1.2451 0,-0.498 0.1715,-0.902 0.5146,-1.2119 0.3542,-0.321 0.9408,-0.4815 1.7598,-0.4815 h 6.1426"
         style="font-variant:normal;font-weight:bold;font-stretch:normal;font-size:34px;font-family:'Courier New';-inkscape-font-specification:'Courier New Bold'"
         id="path4822"
         inkscape:connector-curvature="0" />
      <path
         d="m 1054.1392,1007.2197 v 3.6026 h -4.0508 v -3.6026 h 4.0508 m 0.4648,6.458 v 11.6709 h 4.084 c 0.819,0 1.4,0.1605 1.7432,0.4815 0.3541,0.3099 0.5312,0.7194 0.5312,1.2285 0,0.498 -0.1771,0.9075 -0.5312,1.2285 -0.3432,0.3099 -0.9242,0.4649 -1.7432,0.4649 h -11.5713 c -0.819,0 -1.4056,-0.155 -1.7598,-0.4649 -0.3431,-0.321 -0.5146,-0.736 -0.5146,-1.2451 0,-0.4981 0.1715,-0.902 0.5146,-1.2119 0.3542,-0.321 0.9408,-0.4815 1.7598,-0.4815 h 4.084 v -8.2675 h -2.7393 c -0.8079,0 -1.389,-0.155 -1.7431,-0.4649 -0.3542,-0.3209 -0.5313,-0.736 -0.5313,-1.2451 0,-0.498 0.1716,-0.902 0.5147,-1.2119 0.3541,-0.321 0.9407,-0.4815 1.7597,-0.4815 h 6.1426"
         style="font-variant:normal;font-weight:bold;font-stretch:normal;font-size:34px;font-family:'Courier New';-inkscape-font-specification:'Courier New Bold'"
         id="path4824"
         inkscape:connector-curvature="0" />
      <path
         d="m 1078.6099,1014.292 c 0.4095,-0.3874 0.83,-0.581 1.2617,-0.5811 0.4869,10e-5 0.8854,0.1771 1.1953,0.5313 0.3209,0.3431 0.4814,0.9186 0.4814,1.7265 v 2.1915 c 0,0.819 -0.1605,1.4 -0.4814,1.7431 -0.3099,0.3431 -0.7194,0.5147 -1.2285,0.5147 -0.4649,0 -0.8578,-0.1328 -1.1787,-0.3985 -0.2325,-0.1992 -0.4151,-0.6031 -0.5479,-1.2119 -0.1328,-0.6198 -0.4538,-1.0791 -0.9629,-1.3779 -0.8965,-0.5313 -2.042,-0.7969 -3.4365,-0.7969 -1.6048,0 -2.8942,0.4704 -3.8682,1.4111 -0.9629,0.9408 -1.4443,2.1306 -1.4443,3.5694 0,1.3281 0.4648,2.3795 1.3945,3.1543 0.9297,0.7637 2.4737,1.1455 4.6319,1.1455 1.4166,0 2.5732,-0.1439 3.4697,-0.4317 0.5312,-0.177 1.0348,-0.4759 1.5107,-0.8964 0.4759,-0.4317 0.9076,-0.6475 1.295,-0.6475 0.4648,0 0.8632,0.1716 1.1953,0.5146 0.3431,0.3432 0.5146,0.7471 0.5146,1.212 0,0.7526 -0.5146,1.4664 -1.5439,2.1416 -1.5274,1.0071 -3.7631,1.5107 -6.7071,1.5107 -2.6451,0 -4.7037,-0.5478 -6.1757,-1.6435 -1.9922,-1.4721 -2.9883,-3.4864 -2.9883,-6.043 0,-2.4238 0.8079,-4.4271 2.4238,-6.0098 1.6159,-1.5937 3.7243,-2.3906 6.3252,-2.3906 0.9407,0 1.8151,0.088 2.6231,0.2656 0.8079,0.1771 1.555,0.4427 2.2412,0.7969"
         style="font-variant:normal;font-weight:bold;font-stretch:normal;font-size:34px;font-family:'Courier New';-inkscape-font-specification:'Courier New Bold'"
         id="path4826"
         inkscape:connector-curvature="0" />
      <path
         d="m 1102.2339,1022.9414 h -13.9619 c 0.3541,0.8854 0.9795,1.5993 1.8759,2.1416 0.9076,0.5423 2.1306,0.8135 3.669,0.8135 1.2617,0 2.9385,-0.2712 5.0303,-0.8135 0.8632,-0.2213 1.4609,-0.332 1.7929,-0.332 0.4538,0 0.8356,0.1605 1.1455,0.4814 0.3099,0.321 0.4649,0.725 0.4649,1.2119 0,0.4427 -0.166,0.819 -0.4981,1.1289 -0.4427,0.4095 -1.5218,0.8025 -3.2373,1.1788 -1.7155,0.3652 -3.3646,0.5478 -4.9472,0.5478 -2.7227,0 -4.903,-0.7692 -6.541,-2.3076 -1.627,-1.5384 -2.4405,-3.431 -2.4405,-5.6777 0,-2.3907 0.8799,-4.333 2.6397,-5.8272 1.7708,-1.5052 3.8073,-2.2578 6.1093,-2.2578 1.3835,0 2.6508,0.2435 3.8018,0.7305 1.1621,0.487 2.0254,1.0127 2.5899,1.5771 0.7968,0.819 1.4553,1.8317 1.9755,3.0381 0.3542,0.8412 0.5313,1.8151 0.5313,2.9219 v 1.4443 m -3.7686,-3.4033 c -0.5202,-0.974 -1.2008,-1.6989 -2.042,-2.1748 -0.8411,-0.487 -1.8427,-0.7305 -3.0048,-0.7305 -1.1511,0 -2.1472,0.2435 -2.9883,0.7305 -0.8412,0.4759 -1.5274,1.2008 -2.0586,2.1748 h 10.0937"
         style="font-variant:normal;font-weight:bold;font-stretch:normal;font-size:34px;font-family:'Courier New';-inkscape-font-specification:'Courier New Bold'"
         id="path4828"
         inkscape:connector-curvature="0" />
      <path
         d="m 1110.6343,1013.6777 v 1.1455 c 0.6198,-0.5312 1.3004,-0.9296 2.042,-1.1953 0.7526,-0.2656 1.566,-0.3984 2.4404,-0.3984 2.0143,0 3.6081,0.6253 4.7812,1.876 0.9297,0.9961 1.3946,2.3021 1.3946,3.9179 v 6.3252 c 0.7194,0 1.2506,0.1605 1.5937,0.4815 0.3431,0.3099 0.5147,0.7194 0.5147,1.2285 0,0.498 -0.1771,0.9075 -0.5313,1.2285 -0.3431,0.3099 -0.9241,0.4649 -1.7431,0.4649 h -3.0713 c -0.819,0 -1.4056,-0.155 -1.7598,-0.4649 -0.3431,-0.321 -0.5147,-0.736 -0.5146,-1.2451 -10e-5,-0.4981 0.1715,-0.902 0.5146,-1.2119 0.3431,-0.321 0.8743,-0.4815 1.5938,-0.4815 v -6.4248 c -10e-5,-0.7415 -0.1993,-1.2838 -0.5977,-1.6269 -0.5202,-0.4427 -1.3005,-0.6641 -2.3408,-0.6641 -0.7858,0 -1.4776,0.155 -2.0752,0.4649 -0.5866,0.2988 -1.3337,0.9407 -2.2412,1.9257 v 6.3252 c 0.8743,0 1.4388,0.083 1.6933,0.2491 0.5423,0.332 0.8135,0.819 0.8135,1.4609 0,0.498 -0.1771,0.9075 -0.5312,1.2285 -0.3431,0.3099 -0.9242,0.4649 -1.7432,0.4649 h -3.8682 c -0.819,0 -1.4056,-0.155 -1.7597,-0.4649 -0.3431,-0.321 -0.5147,-0.736 -0.5147,-1.2451 0,-0.6198 0.2656,-1.1012 0.7969,-1.4443 0.2656,-0.1661 0.8356,-0.2491 1.71,-0.2491 v -8.2675 c -0.7194,0 -1.2507,-0.1605 -1.5938,-0.4815 -0.3431,-0.3209 -0.5146,-0.7304 -0.5146,-1.2285 0,-0.498 0.1715,-0.902 0.5146,-1.2119 0.3542,-0.321 0.9408,-0.4815 1.7598,-0.4815 h 3.2373"
         style="font-variant:normal;font-weight:bold;font-stretch:normal;font-size:34px;font-family:'Courier New';-inkscape-font-specification:'Courier New Bold'"
         id="path4830"
         inkscape:connector-curvature="0" />
      <path
         d="m 1138.1431,1017.6621 c -0.5534,-0.3431 -1.1345,-0.5976 -1.7432,-0.7637 -0.6087,-0.177 -1.2451,-0.2656 -1.9092,-0.2656 -1.317,0 -2.3629,0.2158 -3.1377,0.6475 -0.3431,0.1881 -0.5146,0.3929 -0.5146,0.6142 0,0.2546 0.2324,0.5036 0.6972,0.7471 0.3542,0.1771 1.1455,0.3486 2.3741,0.5146 2.2578,0.31 3.8294,0.6199 4.7148,0.9297 1.1621,0.4096 2.0586,1.0183 2.6895,1.8262 0.6308,0.808 0.9462,1.6602 0.9463,2.5567 -10e-5,1.2174 -0.5368,2.2356 -1.6104,3.0546 -1.5384,1.1843 -3.5361,1.7764 -5.9932,1.7764 -0.985,0 -1.8981,-0.089 -2.7392,-0.2656 -0.8301,-0.166 -1.5938,-0.4151 -2.291,-0.7471 -0.1661,0.1439 -0.3431,0.2546 -0.5313,0.332 -0.1881,0.078 -0.3818,0.1163 -0.581,0.1163 -0.5313,0 -0.9574,-0.1716 -1.2784,-0.5147 -0.3099,-0.3542 -0.4648,-0.9408 -0.4648,-1.7598 v -1.1455 c 0,-0.819 0.1549,-1.4 0.4648,-1.7431 0.321,-0.3542 0.736,-0.5313 1.2452,-0.5313 0.4095,0 0.7526,0.1162 1.0293,0.3486 0.2766,0.2214 0.4925,0.6088 0.6474,1.1622 0.5202,0.4427 1.1455,0.7802 1.876,1.0127 0.7305,0.2213 1.5716,0.332 2.5234,0.332 1.5606,0 2.7725,-0.2435 3.6358,-0.7305 0.4095,-0.2435 0.6142,-0.498 0.6142,-0.7637 0,-0.4427 -0.2933,-0.8079 -0.8799,-1.0957 -0.5866,-0.2877 -1.7985,-0.5312 -3.6357,-0.7304 -2.7337,-0.2878 -4.5599,-0.8412 -5.4785,-1.6602 -0.9186,-0.8079 -1.3779,-1.804 -1.3779,-2.9883 0,-1.2174 0.5146,-2.2301 1.5439,-3.0381 1.3945,-1.1067 3.2207,-1.6601 5.4785,-1.6601 0.7858,0 1.5384,0.077 2.2578,0.2324 0.7305,0.1439 1.4278,0.3708 2.0918,0.6807 0.2103,-0.155 0.404,-0.2712 0.5811,-0.3487 0.1881,-0.077 0.3597,-0.1162 0.5146,-0.1162 0.4649,0 0.8522,0.1771 1.1621,0.5313 0.3099,0.3431 0.4649,0.9242 0.4649,1.7431 v 0.8301 c 0,0.7416 -0.089,1.2452 -0.2656,1.5108 -0.3542,0.5091 -0.8357,0.7637 -1.4444,0.7636 -0.4095,10e-5 -0.7692,-0.1272 -1.0791,-0.3818 -0.3099,-0.2545 -0.5091,-0.5921 -0.5976,-1.0127"
         style="font-variant:normal;font-weight:bold;font-stretch:normal;font-size:34px;font-family:'Courier New';-inkscape-font-specification:'Courier New Bold'"
         id="path4832"
         inkscape:connector-curvature="0" />
      <path
         d="m 1163.394,1022.9414 h -13.9619 c 0.3542,0.8854 0.9795,1.5993 1.876,2.1416 0.9075,0.5423 2.1305,0.8135 3.669,0.8135 1.2617,0 2.9384,-0.2712 5.0302,-0.8135 0.8633,-0.2213 1.4609,-0.332 1.793,-0.332 0.4538,0 0.8356,0.1605 1.1455,0.4814 0.3099,0.321 0.4648,0.725 0.4648,1.2119 0,0.4427 -0.166,0.819 -0.498,1.1289 -0.4427,0.4095 -1.5218,0.8025 -3.2373,1.1788 -1.7155,0.3652 -3.3646,0.5478 -4.9473,0.5478 -2.7226,0 -4.903,-0.7692 -6.541,-2.3076 -1.6269,-1.5384 -2.4404,-3.431 -2.4404,-5.6777 0,-2.3907 0.8799,-4.333 2.6396,-5.8272 1.7709,-1.5052 3.8073,-2.2578 6.1094,-2.2578 1.3835,0 2.6507,0.2435 3.8018,0.7305 1.1621,0.487 2.0253,1.0127 2.5898,1.5771 0.7969,0.819 1.4554,1.8317 1.9756,3.0381 0.3541,0.8412 0.5312,1.8151 0.5312,2.9219 v 1.4443 m -3.7685,-3.4033 c -0.5202,-0.974 -1.2009,-1.6989 -2.042,-2.1748 -0.8412,-0.487 -1.8428,-0.7305 -3.0049,-0.7305 -1.151,0 -2.1471,0.2435 -2.9883,0.7305 -0.8411,0.4759 -1.5273,1.2008 -2.0586,2.1748 h 10.0938"
         style="font-variant:normal;font-weight:bold;font-stretch:normal;font-size:34px;font-family:'Courier New';-inkscape-font-specification:'Courier New Bold'"
         id="path4834"
         inkscape:connector-curvature="0" />
      <path
         d="m 1178.9165,1017.6621 c -0.5534,-0.3431 -1.1344,-0.5976 -1.7432,-0.7637 -0.6087,-0.177 -1.2451,-0.2656 -1.9091,-0.2656 -1.3171,0 -2.363,0.2158 -3.1377,0.6475 -0.3431,0.1881 -0.5147,0.3929 -0.5147,0.6142 0,0.2546 0.2324,0.5036 0.6973,0.7471 0.3541,0.1771 1.1455,0.3486 2.374,0.5146 2.2578,0.31 3.8294,0.6199 4.7148,0.9297 1.1621,0.4096 2.0586,1.0183 2.6895,1.8262 0.6308,0.808 0.9463,1.6602 0.9463,2.5567 0,1.2174 -0.5368,2.2356 -1.6104,3.0546 -1.5384,1.1843 -3.5361,1.7764 -5.9931,1.7764 -0.9851,0 -1.8981,-0.089 -2.7393,-0.2656 -0.8301,-0.166 -1.5937,-0.4151 -2.291,-0.7471 -0.166,0.1439 -0.3431,0.2546 -0.5312,0.332 -0.1882,0.078 -0.3819,0.1163 -0.5811,0.1163 -0.5313,0 -0.9574,-0.1716 -1.2783,-0.5147 -0.3099,-0.3542 -0.4649,-0.9408 -0.4649,-1.7598 v -1.1455 c 0,-0.819 0.155,-1.4 0.4649,-1.7431 0.3209,-0.3542 0.736,-0.5313 1.2451,-0.5313 0.4095,0 0.7526,0.1162 1.0293,0.3486 0.2767,0.2214 0.4925,0.6088 0.6475,1.1622 0.5201,0.4427 1.1455,0.7802 1.8759,1.0127 0.7305,0.2213 1.5716,0.332 2.5235,0.332 1.5605,0 2.7724,-0.2435 3.6357,-0.7305 0.4095,-0.2435 0.6143,-0.498 0.6143,-0.7637 0,-0.4427 -0.2933,-0.8079 -0.8799,-1.0957 -0.5866,-0.2877 -1.7985,-0.5312 -3.6358,-0.7304 -2.7337,-0.2878 -4.5599,-0.8412 -5.4785,-1.6602 -0.9186,-0.8079 -1.3779,-1.804 -1.3779,-2.9883 0,-1.2174 0.5146,-2.2301 1.5439,-3.0381 1.3946,-1.1067 3.2207,-1.6601 5.4786,-1.6601 0.7858,0 1.5384,0.077 2.2578,0.2324 0.7304,0.1439 1.4277,0.3708 2.0918,0.6807 0.2102,-0.155 0.4039,-0.2712 0.581,-0.3487 0.1882,-0.077 0.3597,-0.1162 0.5147,-0.1162 0.4648,0 0.8522,0.1771 1.1621,0.5313 0.3099,0.3431 0.4648,0.9242 0.4648,1.7431 v 0.8301 c 0,0.7416 -0.089,1.2452 -0.2656,1.5108 -0.3542,0.5091 -0.8356,0.7637 -1.4443,0.7636 -0.4096,10e-5 -0.7693,-0.1272 -1.0791,-0.3818 -0.3099,-0.2545 -0.5092,-0.5921 -0.5977,-1.0127"
         style="font-variant:normal;font-weight:bold;font-stretch:normal;font-size:34px;font-family:'Courier New';-inkscape-font-specification:'Courier New Bold'"
         id="path4836"
         inkscape:connector-curvature="0" />
      <path
         d="m 1202.6401,1007.668 -10.9072,23.5078 c -0.2767,0.5866 -0.5257,0.9684 -0.7471,1.1455 -0.2877,0.2324 -0.6364,0.3486 -1.0459,0.3486 -0.4648,0 -0.8688,-0.166 -1.2119,-0.498 -0.332,-0.3321 -0.498,-0.7084 -0.498,-1.1289 0,-0.2989 0.1328,-0.736 0.3984,-1.3116 l 10.9404,-23.4912 c 0.2767,-0.5865 0.5202,-0.9684 0.7305,-1.1455 0.2988,-0.2324 0.6475,-0.3486 1.0459,-0.3486 0.4648,0 0.8633,0.166 1.1953,0.498 0.332,0.321 0.4981,0.6918 0.4981,1.1123 0,0.2989 -0.1329,0.7361 -0.3985,1.3116"
         style="font-variant:normal;font-weight:bold;font-stretch:normal;font-size:34px;font-family:'Courier New';-inkscape-font-specification:'Courier New Bold'"
         id="path4838"
         inkscape:connector-curvature="0" />
      <path
         d="m 1211.7212,1007.2197 v 7.6367 c 0.8301,-0.5423 1.6712,-0.9462 2.5234,-1.2119 0.8633,-0.2766 1.7321,-0.415 2.6065,-0.415 2.3574,0 4.3551,0.8135 5.9931,2.4404 1.638,1.627 2.4571,3.5915 2.4571,5.8936 0,2.2025 -0.7803,4.0452 -2.3409,5.5283 -1.5605,1.472 -3.6191,2.208 -6.1757,2.208 -0.9076,0 -1.7819,-0.1162 -2.6231,-0.3486 -0.8411,-0.2324 -1.6546,-0.5755 -2.4404,-1.0293 v 0.8301 h -3.9844 c -0.819,0 -1.4056,-0.155 -1.7597,-0.4649 -0.3431,-0.321 -0.5147,-0.736 -0.5147,-1.2451 0,-0.4981 0.1771,-0.902 0.5313,-1.2119 0.3541,-0.321 0.9352,-0.4815 1.7431,-0.4815 h 0.5811 v -14.7256 h -0.5811 c -0.819,10e-5 -1.4056,-0.1549 -1.7597,-0.4648 -0.3431,-0.3209 -0.5147,-0.736 -0.5147,-1.2451 0,-0.498 0.1716,-0.902 0.5147,-1.2119 0.3541,-0.321 0.9407,-0.4815 1.7597,-0.4815 h 3.9844 m 10.1767,14.4434 c 0,-1.4056 -0.4925,-2.5954 -1.4775,-3.5694 -0.985,-0.9739 -2.1914,-1.4609 -3.6191,-1.4609 -1.4167,0 -2.6176,0.487 -3.6026,1.4609 -0.985,0.974 -1.4775,2.1472 -1.4775,3.5196 0,1.2506 0.4427,2.2799 1.3281,3.0879 0.8854,0.7969 2.1361,1.1953 3.752,1.1953 1.6158,0 2.8665,-0.3984 3.7519,-1.1953 0.8965,-0.808 1.3447,-1.8207 1.3447,-3.0381"
         style="font-variant:normal;font-weight:bold;font-stretch:normal;font-size:34px;font-family:'Courier New';-inkscape-font-specification:'Courier New Bold'"
         id="path4840"
         inkscape:connector-curvature="0" />
      <path
         d="m 1234.4985,1028.6357 -5.8935,-11.5546 c -0.5534,-0.066 -0.974,-0.2546 -1.2617,-0.5645 -0.2878,-0.3099 -0.4317,-0.6862 -0.4317,-1.1289 0,-0.5091 0.1716,-0.9186 0.5147,-1.2285 0.3541,-0.321 0.9407,-0.4815 1.7597,-0.4815 h 3.1045 c 0.819,0 1.4001,0.1605 1.7432,0.4815 0.3541,0.3099 0.5312,0.7194 0.5312,1.2285 0,0.4981 -0.1771,0.9076 -0.5312,1.2285 -0.3431,0.3099 -0.891,0.4649 -1.6436,0.4649 l 4.0176,7.8193 3.9844,-7.8193 c -0.7305,0 -1.2728,-0.155 -1.627,-0.4649 -0.3431,-0.3209 -0.5146,-0.736 -0.5146,-1.2451 0,-0.498 0.1715,-0.902 0.5146,-1.2119 0.3542,-0.321 0.9408,-0.4815 1.7598,-0.4815 h 3.2041 c 0.8079,0 1.3834,0.1605 1.7266,0.4815 0.3541,0.3099 0.5312,0.7194 0.5312,1.2285 0,0.4538 -0.1494,0.8412 -0.4482,1.1621 -0.2989,0.3099 -0.7416,0.487 -1.3282,0.5313 l -7.8027,15.373 c 0.8522,0 1.4111,0.083 1.6768,0.249 0.5312,0.3431 0.7968,0.8301 0.7968,1.461 0,0.498 -0.177,0.902 -0.5312,1.2119 -0.3431,0.3209 -0.9242,0.4814 -1.7432,0.4814 h -7.4209 c -0.819,0 -1.4056,-0.1605 -1.7597,-0.4814 -0.3431,-0.3099 -0.5147,-0.7139 -0.5147,-1.2119 0,-0.5092 0.1716,-0.9242 0.5147,-1.2452 0.3541,-0.3099 0.9407,-0.4648 1.7597,-0.4648 h 3.3868 l 1.9257,-3.8184"
         style="font-variant:normal;font-weight:bold;font-stretch:normal;font-size:34px;font-family:'Courier New';-inkscape-font-specification:'Courier New Bold'"
         id="path4842"
         inkscape:connector-curvature="0" />
      <path
         d="m 1263.9165,1020.6504 h -14.2109 v -3.1045 h 14.2109 v 3.1045"
         style="font-variant:normal;font-weight:bold;font-stretch:normal;font-size:34px;font-family:'Courier New';-inkscape-font-specification:'Courier New Bold'"
         id="path4844"
         inkscape:connector-curvature="0" />
      <path
         d="m 1280.8501,1017.6621 c -0.5534,-0.3431 -1.1345,-0.5976 -1.7432,-0.7637 -0.6087,-0.177 -1.2451,-0.2656 -1.9091,-0.2656 -1.3171,0 -2.363,0.2158 -3.1377,0.6475 -0.3431,0.1881 -0.5147,0.3929 -0.5147,0.6142 0,0.2546 0.2324,0.5036 0.6973,0.7471 0.3541,0.1771 1.1455,0.3486 2.374,0.5146 2.2578,0.31 3.8294,0.6199 4.7148,0.9297 1.1621,0.4096 2.0586,1.0183 2.6895,1.8262 0.6308,0.808 0.9463,1.6602 0.9463,2.5567 0,1.2174 -0.5368,2.2356 -1.6104,3.0546 -1.5384,1.1843 -3.5361,1.7764 -5.9931,1.7764 -0.9851,0 -1.8982,-0.089 -2.7393,-0.2656 -0.8301,-0.166 -1.5937,-0.4151 -2.291,-0.7471 -0.166,0.1439 -0.3431,0.2546 -0.5313,0.332 -0.1881,0.078 -0.3818,0.1163 -0.581,0.1163 -0.5313,0 -0.9574,-0.1716 -1.2783,-0.5147 -0.3099,-0.3542 -0.4649,-0.9408 -0.4649,-1.7598 v -1.1455 c 0,-0.819 0.155,-1.4 0.4649,-1.7431 0.3209,-0.3542 0.736,-0.5313 1.2451,-0.5313 0.4095,0 0.7526,0.1162 1.0293,0.3486 0.2767,0.2214 0.4925,0.6088 0.6474,1.1622 0.5202,0.4427 1.1455,0.7802 1.876,1.0127 0.7305,0.2213 1.5716,0.332 2.5235,0.332 1.5605,0 2.7724,-0.2435 3.6357,-0.7305 0.4095,-0.2435 0.6142,-0.498 0.6143,-0.7637 -10e-5,-0.4427 -0.2933,-0.8079 -0.8799,-1.0957 -0.5866,-0.2877 -1.7985,-0.5312 -3.6358,-0.7304 -2.7337,-0.2878 -4.5599,-0.8412 -5.4785,-1.6602 -0.9186,-0.8079 -1.3779,-1.804 -1.3779,-2.9883 0,-1.2174 0.5146,-2.2301 1.5439,-3.0381 1.3946,-1.1067 3.2207,-1.6601 5.4786,-1.6601 0.7857,0 1.5384,0.077 2.2578,0.2324 0.7304,0.1439 1.4277,0.3708 2.0918,0.6807 0.2102,-0.155 0.4039,-0.2712 0.581,-0.3487 0.1882,-0.077 0.3597,-0.1162 0.5147,-0.1162 0.4648,0 0.8522,0.1771 1.1621,0.5313 0.3099,0.3431 0.4648,0.9242 0.4648,1.7431 v 0.8301 c 0,0.7416 -0.088,1.2452 -0.2656,1.5108 -0.3542,0.5091 -0.8356,0.7637 -1.4443,0.7636 -0.4096,10e-5 -0.7693,-0.1272 -1.0791,-0.3818 -0.31,-0.2545 -0.5092,-0.5921 -0.5977,-1.0127"
         style="font-variant:normal;font-weight:bold;font-stretch:normal;font-size:34px;font-family:'Courier New';-inkscape-font-specification:'Courier New Bold'"
         id="path4846"
         inkscape:connector-curvature="0" />
      <path
         d="m 1300.6226,1028.752 v -0.7969 c -0.8523,0.4538 -1.793,0.7913 -2.8223,1.0127 -1.0293,0.2324 -1.9645,0.3486 -2.8057,0.3486 -1.8261,0 -3.3092,-0.4814 -4.4492,-1.4443 -1.14,-0.974 -1.71,-2.0476 -1.71,-3.2207 0,-1.4278 0.725,-2.7504 2.1749,-3.9678 1.4609,-1.2285 3.4752,-1.8428 6.0429,-1.8428 1.0293,0 2.2191,0.1107 3.5694,0.3321 v -0.8135 c -10e-5,-0.5091 -0.2214,-0.9242 -0.6641,-1.2451 -0.4317,-0.321 -1.2617,-0.4815 -2.4902,-0.4815 -1.0072,0 -2.3132,0.1992 -3.918,0.5977 -0.5977,0.1439 -1.0625,0.2158 -1.3945,0.2158 -0.4538,0 -0.8412,-0.1605 -1.1621,-0.4815 -0.3099,-0.332 -0.4649,-0.7525 -0.4649,-1.2617 0,-0.2877 0.055,-0.5367 0.166,-0.747 0.1107,-0.2103 0.2656,-0.3763 0.4649,-0.4981 0.1992,-0.1328 0.6142,-0.2877 1.2451,-0.4648 0.8411,-0.2324 1.6989,-0.4151 2.5732,-0.5479 0.8744,-0.1439 1.6657,-0.2158 2.3741,-0.2158 2.1139,0 3.7519,0.4593 4.914,1.3779 1.1732,0.9076 1.7598,2.1527 1.7598,3.7354 v 7.0058 h 0.581 c 0.819,0 1.4001,0.1605 1.7432,0.4815 0.3541,0.3099 0.5312,0.7194 0.5312,1.2285 0,0.498 -0.1771,0.9075 -0.5312,1.2285 -0.3431,0.3099 -0.9242,0.4649 -1.7432,0.4649 h -3.9843 m 0,-6.0928 c -1.3614,-0.2656 -2.6176,-0.3985 -3.7686,-0.3985 -1.3835,0 -2.5732,0.3376 -3.5693,1.0127 -0.6198,0.4317 -0.9297,0.8689 -0.9297,1.3116 0,0.3209 0.1494,0.581 0.4482,0.7802 0.5534,0.3653 1.3115,0.5479 2.2744,0.5479 0.819,0 1.7432,-0.1605 2.7725,-0.4815 1.0404,-0.3209 1.9645,-0.7581 2.7725,-1.3115 v -1.4609"
         style="font-variant:normal;font-weight:bold;font-stretch:normal;font-size:34px;font-family:'Courier New';-inkscape-font-specification:'Courier New Bold'"
         id="path4848"
         inkscape:connector-curvature="0" />
      <path
         d="m 1324.9604,1007.668 -10.9072,23.5078 c -0.2767,0.5866 -0.5257,0.9684 -0.747,1.1455 -0.2878,0.2324 -0.6364,0.3486 -1.0459,0.3486 -0.4649,0 -0.8689,-0.166 -1.212,-0.498 -0.332,-0.3321 -0.498,-0.7084 -0.498,-1.1289 0,-0.2989 0.1328,-0.736 0.3984,-1.3116 l 10.9405,-23.4912 c 0.2766,-0.5865 0.5201,-0.9684 0.7304,-1.1455 0.2988,-0.2324 0.6475,-0.3486 1.0459,-0.3486 0.4649,0 0.8633,0.166 1.1953,0.498 0.3321,0.321 0.4981,0.6918 0.4981,1.1123 0,0.2989 -0.1328,0.7361 -0.3985,1.3116"
         style="font-variant:normal;font-weight:bold;font-stretch:normal;font-size:34px;font-family:'Courier New';-inkscape-font-specification:'Courier New Bold'"
         id="path4850"
         inkscape:connector-curvature="0" />
      <path
         d="m 1343.189,1017.3799 c 1.0071,0.6862 1.7597,1.4831 2.2578,2.3906 0.498,0.8965 0.747,1.9037 0.747,3.0215 0,1.2064 -0.332,2.3242 -0.996,3.3535 -0.6531,1.0182 -1.6049,1.793 -2.8555,2.3242 -1.2507,0.5202 -2.8887,0.7803 -4.9141,0.7803 -2.6341,0 -4.6152,-0.4095 -5.9433,-1.2285 -0.7416,-0.4649 -1.1123,-1.0182 -1.1123,-1.6602 0,-0.4869 0.1604,-0.8965 0.4814,-1.2285 0.332,-0.3431 0.7305,-0.5146 1.1953,-0.5146 0.321,0 0.653,0.1106 0.9961,0.332 0.487,0.332 0.9463,0.5534 1.3779,0.6641 0.6641,0.1549 1.5772,0.2324 2.7393,0.2324 1.9811,0 3.4144,-0.2546 4.2998,-0.7637 0.8854,-0.5202 1.3281,-1.2506 1.3281,-2.1914 0,-0.6973 -0.2601,-1.3669 -0.7802,-2.0088 -0.5092,-0.653 -1.1954,-1.1566 -2.0586,-1.5107 -0.4981,-0.1992 -1.3392,-0.3376 -2.5235,-0.4151 -0.5644,-0.033 -1.0016,-0.2047 -1.3115,-0.5146 -0.2988,-0.321 -0.4483,-0.7139 -0.4482,-1.1787 -10e-5,-0.487 0.166,-0.8965 0.498,-1.2285 0.332,-0.3321 0.7526,-0.4981 1.2617,-0.4981 1.1289,0 1.7321,-0.01 1.8096,-0.017 0.4427,-0.044 0.8854,-0.1881 1.3281,-0.4316 0.4427,-0.2435 0.7969,-0.5755 1.0625,-0.9961 0.2767,-0.4317 0.415,-0.8744 0.4151,-1.3282 -10e-5,-0.7193 -0.321,-1.3391 -0.9629,-1.8593 -0.6309,-0.5313 -1.5827,-0.7969 -2.8555,-0.7969 -1.638,0 -2.8887,0.4759 -3.752,1.4277 -0.2545,0.2767 -0.4593,0.4538 -0.6142,0.5313 -0.2324,0.1217 -0.4925,0.1826 -0.7803,0.1826 -0.4648,0 -0.8633,-0.166 -1.1953,-0.498 -0.332,-0.3321 -0.498,-0.7416 -0.498,-1.2286 0,-0.7636 0.5091,-1.5052 1.5273,-2.2246 1.4831,-1.0514 3.3369,-1.5771 5.5615,-1.5771 2.1029,0 3.7907,0.5977 5.0635,1.7929 1.2728,1.1954 1.9092,2.6342 1.9092,4.3165 0,0.8743 -0.1882,1.6933 -0.5645,2.457 -0.3763,0.7526 -0.9407,1.4499 -1.6933,2.0918"
         style="font-variant:normal;font-weight:bold;font-stretch:normal;font-size:34px;font-family:'Courier New';-inkscape-font-specification:'Courier New Bold'"
         id="path4852"
         inkscape:connector-curvature="0" />
      <path
         d="m 1361.3179,1027.042 c 0,0.6419 -0.2269,1.1787 -0.6807,1.6103 -0.4538,0.4317 -1.0791,0.6475 -1.876,0.6475 -0.7969,0 -1.4222,-0.2158 -1.8759,-0.6475 -0.4538,-0.4316 -0.6807,-0.9684 -0.6807,-1.6103 0,-0.6419 0.2269,-1.1787 0.6807,-1.6104 0.4537,-0.4316 1.079,-0.6474 1.8759,-0.6474 0.7969,0 1.4222,0.2158 1.876,0.6474 0.4538,0.4317 0.6807,0.9685 0.6807,1.6104"
         style="font-variant:normal;font-weight:bold;font-stretch:normal;font-size:34px;font-family:'Courier New';-inkscape-font-specification:'Courier New Bold'"
         id="path4854"
         inkscape:connector-curvature="0" />
      <path
         d="m 1386.5356,1016.1182 v 3.7353 c 0,2.2136 -0.6419,4.333 -1.9257,6.3584 -1.2728,2.0254 -3.099,3.0381 -5.4786,3.0381 -1.3724,0 -2.5345,-0.2988 -3.4863,-0.8965 -0.9407,-0.6087 -1.8372,-1.721 -2.6894,-3.3369 -0.8412,-1.6269 -1.2618,-3.348 -1.2618,-5.1631 v -3.7353 c 0,-2.2025 0.6364,-4.3164 1.9092,-6.3418 1.2728,-2.0365 3.099,-3.0547 5.4785,-3.0547 1.3614,0 2.5124,0.2988 3.4532,0.8965 0.9518,0.5976 1.8538,1.7099 2.706,3.3369 0.8633,1.6159 1.2949,3.3369 1.2949,5.1631 m -3.4199,0 c 0,-1.8483 -0.5146,-3.4642 -1.5439,-4.8477 -0.5866,-0.7636 -1.4112,-1.1455 -2.4737,-1.1455 -1.0293,0 -1.8704,0.4206 -2.5234,1.2617 -0.985,1.2728 -1.4775,2.85 -1.4775,4.7315 v 3.7353 c 0,1.8594 0.5201,3.4753 1.5605,4.8477 0.5755,0.7636 1.4001,1.1455 2.4736,1.1455 1.0183,0 1.8539,-0.4206 2.5069,-1.2617 0.985,-1.2728 1.4775,-2.85 1.4775,-4.7315 v -3.7353"
         style="font-variant:normal;font-weight:bold;font-stretch:normal;font-size:34px;font-family:'Courier New';-inkscape-font-specification:'Courier New Bold'"
         id="path4856"
         inkscape:connector-curvature="0" />
      <path
         d="m 1406.5073,1007.668 -10.9072,23.5078 c -0.2767,0.5866 -0.5257,0.9684 -0.7471,1.1455 -0.2877,0.2324 -0.6364,0.3486 -1.0459,0.3486 -0.4648,0 -0.8688,-0.166 -1.2119,-0.498 -0.332,-0.3321 -0.498,-0.7084 -0.498,-1.1289 0,-0.2989 0.1328,-0.736 0.3984,-1.3116 l 10.9404,-23.4912 c 0.2767,-0.5865 0.5202,-0.9684 0.7305,-1.1455 0.2988,-0.2324 0.6474,-0.3486 1.0459,-0.3486 0.4648,0 0.8633,0.166 1.1953,0.498 0.332,0.321 0.498,0.6918 0.4981,1.1123 -10e-5,0.2989 -0.1329,0.7361 -0.3985,1.3116"
         style="font-variant:normal;font-weight:bold;font-stretch:normal;font-size:34px;font-family:'Courier New';-inkscape-font-specification:'Courier New Bold'"
         id="path4858"
         inkscape:connector-curvature="0" />
      <path
         d="m 1427.6909,1007.2197 v 18.1289 h 0.5811 c 0.8079,0 1.389,0.1605 1.7431,0.4815 0.3542,0.3099 0.5313,0.7194 0.5313,1.2285 0,0.498 -0.1771,0.9075 -0.5313,1.2285 -0.3431,0.3099 -0.9241,0.4649 -1.7431,0.4649 h -3.9844 v -0.8301 c -0.7748,0.4538 -1.5882,0.7969 -2.4404,1.0293 -0.8412,0.2324 -1.7155,0.3486 -2.6231,0.3486 -2.5566,0 -4.6152,-0.736 -6.1758,-2.208 -1.5605,-1.4831 -2.3408,-3.3258 -2.3408,-5.5283 0,-2.3021 0.819,-4.2666 2.4571,-5.8936 1.638,-1.6269 3.6357,-2.4404 5.9931,-2.4404 0.8854,0 1.7542,0.1384 2.6065,0.415 0.8522,0.2657 1.6933,0.6696 2.5234,1.2119 v -4.2334 h -0.5811 c -0.819,10e-5 -1.4056,-0.1549 -1.7597,-0.4648 -0.3431,-0.3209 -0.5147,-0.7304 -0.5147,-1.2285 0,-0.5091 0.1716,-0.9186 0.5147,-1.2285 0.3541,-0.321 0.9407,-0.4815 1.7597,-0.4815 h 3.9844 m -3.4033,14.4434 c 0,-1.4056 -0.4925,-2.5954 -1.4775,-3.5694 -0.9851,-0.9739 -2.1915,-1.4609 -3.6192,-1.4609 -1.4167,0 -2.6175,0.487 -3.6025,1.4609 -0.9851,0.974 -1.4776,2.1472 -1.4776,3.5196 0,1.2506 0.4427,2.2799 1.3282,3.0879 0.8854,0.7969 2.136,1.1953 3.7519,1.1953 1.6048,0 2.8555,-0.3984 3.752,-1.1953 0.8964,-0.808 1.3447,-1.8207 1.3447,-3.0381"
         style="font-variant:normal;font-weight:bold;font-stretch:normal;font-size:34px;font-family:'Courier New';-inkscape-font-specification:'Courier New Bold'"
         id="path4860"
         inkscape:connector-curvature="0" />
      <path
         d="m 1448.8081,1022.9414 h -13.9619 c 0.3542,0.8854 0.9795,1.5993 1.876,2.1416 0.9075,0.5423 2.1305,0.8135 3.6689,0.8135 1.2617,0 2.9385,-0.2712 5.0303,-0.8135 0.8633,-0.2213 1.4609,-0.332 1.793,-0.332 0.4537,0 0.8355,0.1605 1.1455,0.4814 0.3098,0.321 0.4648,0.725 0.4648,1.2119 0,0.4427 -0.166,0.819 -0.498,1.1289 -0.4428,0.4095 -1.5219,0.8025 -3.2373,1.1788 -1.7156,0.3652 -3.3646,0.5478 -4.9473,0.5478 -2.7227,0 -4.903,-0.7692 -6.541,-2.3076 -1.627,-1.5384 -2.4405,-3.431 -2.4405,-5.6777 0,-2.3907 0.8799,-4.333 2.6397,-5.8272 1.7708,-1.5052 3.8073,-2.2578 6.1094,-2.2578 1.3834,0 2.6507,0.2435 3.8017,0.7305 1.1621,0.487 2.0254,1.0127 2.5899,1.5771 0.7968,0.819 1.4554,1.8317 1.9756,3.0381 0.3541,0.8412 0.5312,1.8151 0.5312,2.9219 v 1.4443 m -3.7685,-3.4033 c -0.5202,-0.974 -1.2009,-1.6989 -2.042,-2.1748 -0.8412,-0.487 -1.8428,-0.7305 -3.0049,-0.7305 -1.1511,0 -2.1472,0.2435 -2.9883,0.7305 -0.8412,0.4759 -1.5274,1.2008 -2.0586,2.1748 h 10.0938"
         style="font-variant:normal;font-weight:bold;font-stretch:normal;font-size:34px;font-family:'Courier New';-inkscape-font-specification:'Courier New Bold'"
         id="path4862"
         inkscape:connector-curvature="0" />
      <path
         d="m 1467.6675,1007.668 -10.9072,23.5078 c -0.2767,0.5866 -0.5258,0.9684 -0.7471,1.1455 -0.2878,0.2324 -0.6364,0.3486 -1.0459,0.3486 -0.4649,0 -0.8688,-0.166 -1.2119,-0.498 -0.3321,-0.3321 -0.4981,-0.7084 -0.4981,-1.1289 0,-0.2989 0.1328,-0.736 0.3985,-1.3116 l 10.9404,-23.4912 c 0.2767,-0.5865 0.5202,-0.9684 0.7305,-1.1455 0.2988,-0.2324 0.6474,-0.3486 1.0459,-0.3486 0.4648,0 0.8632,0.166 1.1953,0.498 0.332,0.321 0.498,0.6918 0.498,1.1123 0,0.2989 -0.1328,0.7361 -0.3984,1.3116"
         style="font-variant:normal;font-weight:bold;font-stretch:normal;font-size:34px;font-family:'Courier New';-inkscape-font-specification:'Courier New Bold'"
         id="path4864"
         inkscape:connector-curvature="0" />
    </g>
  </g>
  <g
     inkscape:label="Ebene 1"
     inkscape:groupmode="layer"
     id="layer1"
     transform="translate(0,27.637847)">
    <g
       id="bysalogo"
       transform="matrix(1.9234016,0,0,1.9234016,-759.49213,-580.00841)"
       inkscape:label="#g4760">
      <path
         style="fill:#e12617;fill-opacity:1"
         id="path4637"
         d="m 816.78335,734.48948 c 8.951,0 16.572,3.125 22.857,9.372 3.008,3.009 5.295,6.448 6.857,10.314 1.561,3.867 2.344,7.971 2.344,12.314 0,4.381 -0.773,8.486 -2.314,12.313 -1.543,3.828 -3.82,7.21 -6.828,10.143 -3.123,3.085 -6.666,5.448 -10.629,7.086 -3.961,1.638 -8.057,2.457 -12.285,2.457 -4.228,0 -8.276,-0.808 -12.143,-2.429 -3.866,-1.618 -7.333,-3.961 -10.4,-7.027 -3.067,-3.066 -5.4,-6.524 -7,-10.372 -1.6,-3.848 -2.4,-7.904 -2.4,-12.171 0,-4.229 0.809,-8.295 2.428,-12.2 1.619,-3.905 3.972,-7.4 7.057,-10.486 6.095,-6.208 13.58,-9.314 22.456,-9.314 z m 0.116,5.772 c -7.314,0 -13.467,2.553 -18.458,7.657 -2.515,2.553 -4.448,5.419 -5.8,8.6 -1.354,3.181 -2.029,6.505 -2.029,9.972 0,3.429 0.675,6.734 2.029,9.913 1.353,3.183 3.285,6.021 5.8,8.516 2.514,2.496 5.351,4.399 8.515,5.715 3.161,1.314 6.476,1.971 9.943,1.971 3.428,0 6.75,-0.665 9.973,-1.999 3.219,-1.335 6.121,-3.257 8.713,-5.771 4.99,-4.876 7.484,-10.99 7.484,-18.344 0,-3.543 -0.648,-6.895 -1.943,-10.057 -1.293,-3.162 -3.18,-5.98 -5.654,-8.458 -5.146,-5.143 -11.335,-7.715 -18.573,-7.715 z m -0.401,20.915 -4.287,2.229 c -0.458,-0.951 -1.019,-1.619 -1.685,-2 -0.667,-0.38 -1.286,-0.571 -1.858,-0.571 -2.856,0 -4.286,1.885 -4.286,5.657 0,1.714 0.362,3.084 1.085,4.113 0.724,1.029 1.791,1.544 3.201,1.544 1.867,0 3.181,-0.915 3.944,-2.743 l 3.942,2 c -0.838,1.563 -2,2.791 -3.486,3.686 -1.484,0.896 -3.123,1.343 -4.914,1.343 -2.857,0 -5.163,-0.875 -6.915,-2.629 -1.752,-1.752 -2.628,-4.19 -2.628,-7.313 0,-3.048 0.886,-5.466 2.657,-7.257 1.771,-1.79 4.009,-2.686 6.715,-2.686 3.963,-0.002 6.8,1.541 8.515,4.627 z m 18.457,0 -4.229,2.229 c -0.457,-0.951 -1.02,-1.619 -1.686,-2 -0.668,-0.38 -1.307,-0.571 -1.914,-0.571 -2.857,0 -4.287,1.885 -4.287,5.657 0,1.714 0.363,3.084 1.086,4.113 0.723,1.029 1.789,1.544 3.201,1.544 1.865,0 3.18,-0.915 3.941,-2.743 l 4,2 c -0.875,1.563 -2.057,2.791 -3.541,3.686 -1.486,0.896 -3.105,1.343 -4.857,1.343 -2.896,0 -5.209,-0.875 -6.941,-2.629 -1.736,-1.752 -2.602,-4.19 -2.602,-7.313 0,-3.048 0.885,-5.466 2.658,-7.257 1.77,-1.79 4.008,-2.686 6.713,-2.686 3.962,-0.002 6.783,1.541 8.458,4.627 z"
         inkscape:connector-curvature="0" />
      <path
         inkscape:connector-curvature="0"
         d="m 971.07062,734.48898 c 8.951,0 16.531,3.105 22.742,9.315 6.20798,6.172 9.31498,13.733 9.31498,22.685 0,8.954 -3.049,16.457 -9.14498,22.514 -6.437,6.324 -14.076,9.486 -22.912,9.486 -8.649,0 -16.153,-3.143 -22.514,-9.429 -6.285,-6.285 -9.429,-13.807 -9.429,-22.57 0,-8.723 3.144,-16.285 9.429,-22.685 6.209,-6.211 13.714,-9.316 22.514,-9.316 z m 0.114,5.772 c -7.276,0 -13.428,2.572 -18.457,7.715 -5.22,5.296 -7.829,11.467 -7.829,18.513 0,7.125 2.59,13.257 7.77,18.4 5.181,5.182 11.352,7.771 18.514,7.771 7.123,0 13.334,-2.609 18.629,-7.828 5.029,-4.876 7.543,-10.99 7.543,-18.343 0,-7.313 -2.553,-13.485 -7.656,-18.513 -5.067,-5.145 -11.239,-7.715 -18.514,-7.715 z m -14.286,21.713 c 0.609,-3.924 2.189,-6.962 4.742,-9.114 2.552,-2.152 5.656,-3.228 9.314,-3.228 5.027,0 9.029,1.62 12,4.856 2.971,3.238 4.457,7.391 4.457,12.457 0,4.915 -1.543,9 -4.627,12.256 -3.088,3.256 -7.086,4.886 -12.002,4.886 -3.619,0 -6.743,-1.085 -9.371,-3.257 -2.629,-2.172 -4.209,-5.257 -4.743,-9.257 h 8.059 c 0.19,3.886 2.533,5.829 7.029,5.829 2.246,0 4.057,-0.972 5.428,-2.914 1.373,-1.942 2.059,-4.534 2.059,-7.771 0,-3.391 -0.629,-5.971 -1.885,-7.743 -1.258,-1.771 -3.066,-2.657 -5.43,-2.657 -4.268,0 -6.667,1.885 -7.2,5.656 h 2.343 l -6.342,6.343 -6.343,-6.343 z"
         id="path4708"
         style="fill:#e12617;fill-opacity:1" />
      <path
         inkscape:connector-curvature="0"
         d="m 893.9275,734.48898 c 8.988,0 16.57,3.085 22.742,9.257 6.208,6.21 9.315,13.791 9.315,22.743 0,8.991 -3.049,16.476 -9.145,22.456 -6.476,6.363 -14.113,9.544 -22.912,9.544 -8.649,0 -16.153,-3.144 -22.514,-9.43 -6.285,-6.286 -9.429,-13.808 -9.429,-22.57 0,-8.761 3.144,-16.342 9.429,-22.742 6.172,-6.173 13.675,-9.258 22.514,-9.258 z m 0.114,5.772 c -7.276,0 -13.428,2.553 -18.457,7.657 -5.22,5.334 -7.829,11.525 -7.829,18.572 0,7.086 2.59,13.22 7.77,18.398 5.181,5.182 11.352,7.771 18.514,7.771 7.123,0 13.334,-2.607 18.629,-7.828 5.029,-4.838 7.543,-10.952 7.543,-18.343 0,-7.276 -2.553,-13.465 -7.656,-18.571 -5.104,-5.104 -11.276,-7.656 -18.514,-7.656 z m 8.572,18.285 v 13.085 h -3.656 v 15.542 h -9.944 v -15.541 h -3.656 v -13.086 c 0,-0.572 0.2,-1.057 0.599,-1.457 0.401,-0.399 0.887,-0.6 1.457,-0.6 h 13.144 c 0.533,0 1.01,0.2 1.428,0.6 0.417,0.4 0.628,0.886 0.628,1.457 z m -13.087,-8.228 c 0,-3.008 1.485,-4.514 4.458,-4.514 2.973,0 4.457,1.504 4.457,4.514 0,2.971 -1.486,4.457 -4.457,4.457 -2.971,0 -4.458,-1.486 -4.458,-4.457 z"
         id="path4569"
         style="fill:#e12617;fill-opacity:1" />
    </g>
    <g
       inkscape:label="ink_ext_XXXXXX"
       transform="matrix(0.81853592,0,0,-0.81929712,187.89262,565.12485)"
       id="logo"
       style="fill:#e12617;fill-opacity:1">
      <g
         transform="scale(0.1)"
         id="g12"
         style="fill:#e12617;fill-opacity:1">
        <g
           transform="scale(10)"
           id="Text-Outlines"
           style="fill:#e12617;fill-opacity:1">
          <g
             id="www.noname-ev.de"
             style="fill:#e12617;fill-opacity:1">
            <polygon
               id="polygon9"
               points="986.4,287.5 976.1,255.9 966.5,255.9 960.8,274.9 955.4,255.9 945.8,255.9 935.4,287.5 945.8,287.5 950.3,267.6 956,287.5 965.6,287.5 971.5,267.6 976.1,287.5 "
               class="st0"
               style="fill:#e12617;fill-opacity:1" />
            <polygon
               id="polygon11"
               points="1037,287.5 1026.7,255.9 1017.1,255.9 1011.5,274.9 1006,255.9 996.4,255.9 986,287.5 996.4,287.5 1000.9,267.6 1006.6,287.5 1016.3,287.5 1022.2,267.6 1026.7,287.5 "
               class="st0"
               style="fill:#e12617;fill-opacity:1" />
            <polygon
               id="polygon13"
               points="1087.6,287.5 1077.3,255.9 1067.8,255.9 1062.1,274.9 1056.6,255.9 1047,255.9 1036.6,287.5 1047,287.5 1051.5,267.6 1057.2,287.5 1066.9,287.5 1072.8,267.6 1077.3,287.5 "
               class="st0"
               style="fill:#e12617;fill-opacity:1" />
            <polygon
               id="polygon15"
               points="1085.9,255.9 1085.9,268.1 1097.4,268.1 1097.4,255.9 "
               class="st0"
               style="fill:#e12617;fill-opacity:1" />
            <path
               id="path17"
               d="m 1103.9,287.5 h 10 v -5.1 c 1.5,2.1 3,3.6 4.5,4.5 1.5,0.9 3.4,1.4 5.6,1.4 3,0 5.3,-1 7,-3 1.7,-2 2.5,-5.1 2.5,-9.2 V 256 h -10.8 v 17.4 c 0,2 -0.3,3.4 -1,4.2 -0.6,0.8 -1.6,1.2 -2.7,1.2 -1.3,0 -2.4,-0.6 -3.2,-1.7 -0.8,-1.1 -1.2,-3.1 -1.2,-6 v -15.2 h -10.7 z"
               class="st0"
               inkscape:connector-curvature="0"
               style="fill:#e12617;fill-opacity:1" />
            <path
               id="path19"
               d="m 1149.2,271.7 c 0,-2.8 0.5,-4.9 1.5,-6.2 1,-1.4 2.3,-2 3.8,-2 1.5,0 2.8,0.7 3.8,2 1,1.3 1.5,3.5 1.5,6.4 0,2.7 -0.5,4.8 -1.5,6.1 -1,1.3 -2.2,2 -3.7,2 -1.6,0 -2.9,-0.7 -3.9,-2 -1,-1.5 -1.5,-3.6 -1.5,-6.3 z m -10.8,0 c 0,4.8 1.4,8.8 4.3,11.9 2.9,3.1 6.8,4.7 11.7,4.7 5.6,0 9.8,-1.8 12.7,-5.5 2.3,-3 3.5,-6.6 3.5,-10.9 0,-4.9 -1.4,-8.9 -4.3,-12 -2.9,-3.1 -6.8,-4.7 -11.9,-4.7 -4.5,0 -8.1,1.3 -10.9,3.9 -3.4,3.2 -5.1,7.4 -5.1,12.6 z"
               class="st0"
               inkscape:connector-curvature="0"
               style="fill:#e12617;fill-opacity:1" />
            <path
               id="path21"
               d="m 1175.5,287.5 h 10 v -5.1 c 1.5,2.1 3,3.6 4.5,4.5 1.5,0.9 3.4,1.4 5.6,1.4 3,0 5.3,-1 7,-3 1.7,-2 2.5,-5.1 2.5,-9.2 V 256 h -10.8 v 17.4 c 0,2 -0.3,3.4 -1,4.2 -0.6,0.8 -1.6,1.2 -2.7,1.2 -1.3,0 -2.4,-0.6 -3.2,-1.7 -0.8,-1.1 -1.2,-3.1 -1.2,-6 v -15.2 h -10.7 z"
               class="st0"
               inkscape:connector-curvature="0"
               style="fill:#e12617;fill-opacity:1" />
            <path
               id="path23"
               d="m 1230.4,270.9 c -1.5,-0.6 -3,-1.1 -4.6,-1.6 -2.2,-0.7 -3.6,-1.3 -4.1,-1.9 -0.6,-0.7 -0.9,-1.4 -0.9,-2.2 0,-1 0.3,-1.7 0.9,-2.3 0.6,-0.6 1.5,-0.9 2.6,-0.9 1.2,0 2.3,0.3 3.3,1 1,0.7 1.8,1.5 2.2,2.4 0.4,0.9 0.6,2.2 0.6,3.7 z m -9.3,6.4 -10.3,1.2 c 0.4,2 0.9,3.6 1.7,4.8 0.7,1.2 1.8,2.2 3.2,3 1,0.6 2.3,1.1 4.1,1.4 1.7,0.3 3.6,0.5 5.6,0.5 3.2,0 5.8,-0.2 7.7,-0.6 2,-0.4 3.6,-1.3 4.9,-2.5 0.9,-0.9 1.6,-2.2 2.2,-3.8 0.5,-1.6 0.8,-3.2 0.8,-4.7 v -14 c 0,-1.5 0.1,-2.7 0.2,-3.5 0.2,-0.8 0.5,-1.9 1.1,-3.2 h -10.1 c -0.4,0.8 -0.7,1.4 -0.8,1.9 -0.1,0.4 -0.2,1.1 -0.4,2 -1.4,-1.5 -2.8,-2.6 -4.2,-3.3 -1.9,-0.9 -4.1,-1.3 -6.6,-1.3 -3.3,0 -5.9,0.9 -7.6,2.6 -1.7,1.8 -2.6,3.9 -2.6,6.5 0,2.4 0.6,4.4 1.9,5.9 1.2,1.6 3.6,2.7 6.9,3.5 4,0.9 6.6,1.6 7.8,1.9 1.2,0.4 2.5,0.8 3.8,1.5 0,1.5 -0.3,2.5 -0.8,3.1 -0.5,0.6 -1.5,0.9 -2.9,0.9 -1.8,0 -3.1,-0.3 -4,-1 -0.6,-0.5 -1.1,-1.4 -1.6,-2.8 z"
               class="st0"
               inkscape:connector-curvature="0"
               style="fill:#e12617;fill-opacity:1" />
            <path
               id="path25"
               d="m 1247.3,287.5 h 10 v -4.6 c 1.4,1.9 2.9,3.3 4.4,4.1 1.5,0.8 3.2,1.2 5.3,1.2 2.2,0 4,-0.4 5.3,-1.3 1.3,-0.9 2.4,-2.2 3.2,-4 1.7,2.1 3.2,3.5 4.6,4.2 1.4,0.8 3.1,1.1 5.1,1.1 3,0 5.4,-1 7,-3 1.7,-2 2.5,-5.2 2.5,-9.5 V 255.8 H 1284 v 18 c 0,1.4 -0.2,2.5 -0.7,3.2 -0.7,1.1 -1.6,1.6 -2.7,1.6 -1.3,0 -2.3,-0.5 -3.1,-1.5 -0.8,-1 -1.2,-2.7 -1.2,-5 v -16.3 h -10.8 v 17.4 c 0,1.4 -0.1,2.3 -0.2,2.8 -0.2,0.8 -0.6,1.4 -1.2,1.9 -0.6,0.5 -1.2,0.7 -2,0.7 -1.2,0 -2.2,-0.5 -3,-1.6 -0.8,-1.1 -1.2,-2.8 -1.2,-5.2 v -16.1 h -10.8 v 31.8 z"
               class="st0"
               inkscape:connector-curvature="0"
               style="fill:#e12617;fill-opacity:1" />
            <path
               id="path27"
               d="m 1321,274.5 c -0.2,2.3 -0.8,4 -1.7,5 -0.9,1 -2.1,1.5 -3.6,1.5 -1.7,0 -3.1,-0.8 -4.1,-2.3 -0.6,-0.9 -1.1,-2.4 -1.2,-4.3 h 10.6 z m 10.9,-5.8 h -21.5 c 0.2,-1.9 0.7,-3.4 1.4,-4.4 1,-1.4 2.4,-2 4,-2 1.1,0 2.1,0.3 3,0.9 0.6,0.4 1.2,1 1.9,2 l 10.6,-1.1 c -1.6,-3.2 -3.6,-5.5 -5.9,-6.8 -2.3,-1.4 -5.6,-2.1 -9.8,-2.1 -3.7,0 -6.6,0.6 -8.8,1.8 -2.1,1.2 -3.9,3.1 -5.3,5.6 -1.4,2.6 -2.1,5.6 -2.1,9.1 0,4.9 1.4,8.9 4.2,12 2.8,3.1 6.7,4.6 11.6,4.6 4,0 7.2,-0.7 9.5,-2.1 2.3,-1.4 4.1,-3.4 5.3,-6 1.2,-2.6 1.8,-6 1.8,-10.2 v -1.3 z"
               class="st0"
               inkscape:connector-curvature="0"
               style="fill:#e12617;fill-opacity:1" />
            <polygon
               id="polygon29"
               points="1334.6,267.2 1334.6,276.5 1350.2,276.5 1350.2,267.2 "
               class="st0"
               style="fill:#e12617;fill-opacity:1" />
            <path
               id="path31"
               d="m 1374.7,274.5 c -0.2,2.3 -0.8,4 -1.7,5 -0.9,1 -2.1,1.5 -3.6,1.5 -1.7,0 -3.1,-0.8 -4.1,-2.3 -0.6,-0.9 -1.1,-2.4 -1.2,-4.3 h 10.6 z m 10.9,-5.8 h -21.5 c 0.2,-1.9 0.7,-3.4 1.4,-4.4 1,-1.4 2.4,-2 4,-2 1.1,0 2.1,0.3 3,0.9 0.6,0.4 1.2,1 1.9,2 l 10.6,-1.1 c -1.6,-3.2 -3.6,-5.5 -5.9,-6.8 -2.3,-1.4 -5.6,-2.1 -9.8,-2.1 -3.7,0 -6.6,0.6 -8.8,1.8 -2.1,1.2 -3.9,3.1 -5.3,5.6 -1.4,2.6 -2.1,5.6 -2.1,9.1 0,4.9 1.4,8.9 4.2,12 2.8,3.1 6.7,4.6 11.6,4.6 4,0 7.2,-0.7 9.5,-2.1 2.3,-1.4 4.1,-3.4 5.3,-6 1.2,-2.6 1.8,-6 1.8,-10.2 v -1.3 z"
               class="st0"
               inkscape:connector-curvature="0"
               style="fill:#e12617;fill-opacity:1" />
            <polygon
               id="polygon33"
               points="1407,255.9 1397.5,255.9 1385.9,287.5 1397,287.5 1402.5,267.5 1408.1,287.5 1418.9,287.5 "
               class="st0"
               style="fill:#e12617;fill-opacity:1" />
            <polygon
               id="polygon35"
               points="1416.9,255.9 1416.9,268.1 1428.4,268.1 1428.4,255.9 "
               class="st0"
               style="fill:#e12617;fill-opacity:1" />
            <path
               id="path37"
               d="m 1453.6,271.8 c 0,2.5 -0.5,4.3 -1.4,5.5 -0.9,1.2 -2.1,1.8 -3.5,1.8 -1.2,0 -2.3,-0.6 -3.1,-1.8 -0.8,-1.2 -1.3,-3.1 -1.3,-5.9 0,-2.6 0.4,-4.5 1.3,-5.7 0.9,-1.2 2,-1.8 3.2,-1.8 1.4,0 2.5,0.6 3.4,1.8 0.9,1.4 1.4,3.4 1.4,6.1 z m 10.8,27.8 v -43.7 h -10 v 4.7 c -1.4,-2 -2.7,-3.3 -3.8,-4 -1.6,-0.9 -3.3,-1.4 -5.2,-1.4 -3.8,0 -6.7,1.6 -8.7,4.9 -2,3.3 -3,7.3 -3,12 0,5.2 1.1,9.2 3.3,12 2.2,2.8 5,4.2 8.5,4.2 1.7,0 3.2,-0.3 4.5,-1 1.4,-0.6 2.6,-1.6 3.6,-2.9 v 15.1 h 10.8 z"
               class="st0"
               inkscape:connector-curvature="0"
               style="fill:#e12617;fill-opacity:1" />
            <path
               id="path39"
               d="m 1490.9,274.5 c -0.2,2.3 -0.8,4 -1.7,5 -0.9,1 -2.1,1.5 -3.6,1.5 -1.7,0 -3.1,-0.8 -4.1,-2.3 -0.6,-0.9 -1.1,-2.4 -1.2,-4.3 h 10.6 z m 10.9,-5.8 h -21.5 c 0.2,-1.9 0.7,-3.4 1.4,-4.4 1,-1.4 2.4,-2 4,-2 1.1,0 2.1,0.3 3,0.9 0.6,0.4 1.2,1 1.9,2 l 10.6,-1.1 c -1.6,-3.2 -3.6,-5.5 -5.9,-6.8 -2.3,-1.4 -5.6,-2.1 -9.8,-2.1 -3.7,0 -6.6,0.6 -8.8,1.8 -2.1,1.2 -3.9,3.1 -5.3,5.6 -1.4,2.6 -2.1,5.6 -2.1,9.1 0,4.9 1.4,8.9 4.2,12 2.8,3.1 6.7,4.6 11.6,4.6 4,0 7.2,-0.7 9.5,-2.1 2.3,-1.4 4.1,-3.4 5.3,-6 1.2,-2.6 1.8,-6 1.8,-10.2 v -1.3 z"
               class="st0"
               inkscape:connector-curvature="0"
               style="fill:#e12617;fill-opacity:1" />
          </g>
          <path
             d="m 733.5,508.4 h 50.8 l 66.3,-111.7 v 111.7 h 51.3 v -202 h -51.3 l -66,110.9 V 306.4 h -51.2 z m 310.4,-168.7 h -62 l -8.5,-33.3 h -55.6 l 66.2,202 h 59.3 l 66.2,-201.9 h -56.9 z m -11.4,43.7 -19.5,72.6 -19.3,-72.6 z m 93.8,125 h 71.6 l 27.6,-122.9 27.5,122.9 h 71.3 v -202 h -44.4 v 154 l -34.5,-154 h -40.2 l -34.4,154 v -154 h -44.6 z m 232.6,0 h 145.8 v -43.1 h -91.2 v -32.1 h 0.3 V 392 h -0.3 v -39.8 h 93.9 V 306.5 H 1359 l -0.1,201.9"
             class="st0"
             inkscape:connector-curvature="0"
             id="NAME"
             style="fill:#e12617;fill-opacity:1" />
          <g
             id="No_x3F_"
             style="fill:#e12617;fill-opacity:1">
            <polygon
               id="polygon43"
               points="552,508.1 598.3,508.1 598.3,308.4 552,308.4 492.5,418 492.5,308.4 446.3,308.4 446.3,508.1 492.1,508.1 552,397.6 "
               class="st0"
               style="fill:#e12617;fill-opacity:1" />
            <path
               id="path45"
               d="m 647.1,287.6 h 31 v -32.4 h -31 z m 29.9,9.1 h -29 v 3.4 c 0,5.8 0.6,10.6 1.7,14.2 1.1,3.6 2.8,7 5,10 2.2,3 7.2,8.3 14.9,15.9 4.1,4 6.2,7.6 6.2,10.9 0,3.3 -0.8,5.9 -2.5,7.7 -1.6,1.8 -4.1,2.8 -7.5,2.8 -3.6,0 -6.6,-1.4 -9,-4.2 -2.4,-2.8 -3.9,-7.8 -4.5,-14.8 l -29.5,4.3 c 1,12.9 5,23.3 11.8,31.1 6.9,7.9 17.4,11.8 31.7,11.8 11.1,0 20,-2.7 26.8,-8.2 9.2,-7.4 13.9,-17.3 13.9,-29.6 0,-5.1 -1.2,-10.1 -3.6,-14.8 -2.4,-4.8 -7.3,-10.6 -14.6,-17.4 -5.1,-4.8 -8.4,-8.7 -9.7,-11.6 -1.4,-3 -2.1,-6.8 -2.1,-11.5 z"
               class="st0"
               inkscape:connector-curvature="0"
               style="fill:#e12617;fill-opacity:1" />
            <path
               id="path47"
               d="m 644.4,451.7 c 0,-9.8 1.7,-16.9 5.2,-21.2 3.4,-4.3 8.1,-6.4 14,-6.4 6.1,0 10.8,2.1 14.1,6.3 3.3,4.2 5,11.8 5,22.7 0,9.2 -1.7,15.8 -5.2,20.1 -3.5,4.2 -8.2,6.3 -14.2,6.3 -5.7,0 -10.3,-2.1 -13.8,-6.4 -3.4,-4.4 -5.1,-11.5 -5.1,-21.4 z m -28.3,0.1 c 0,15.9 4.2,28.3 12.5,37.1 8.3,8.9 19.9,13.3 34.8,13.3 15.2,0 27,-4.4 35.2,-13 8.2,-8.7 12.4,-20.9 12.4,-36.6 0,-11.4 -1.8,-20.7 -5.4,-28 -3.6,-7.3 -8.8,-12.9 -15.6,-17 -6.8,-4.1 -15.3,-6.1 -25.5,-6.1 -10.3,0 -18.9,1.7 -25.7,5.2 -6.8,3.5 -12.3,9 -16.5,16.6 -4.1,7.7 -6.2,17.2 -6.2,28.5 z"
               class="st0"
               inkscape:connector-curvature="0"
               style="fill:#e12617;fill-opacity:1" />
          </g>
        </g>
        <path
           d="m 3807.6,5590.6 v 0 0 h 11787.7 v 0 h 4.9 V 4651 h -319 v 620.6 H 4126.6 v -2396 H 6357 v -319 H 3807.7 v 2.4 0 z m 11473.6,-2715 h -189.9 v -319 h 504 v 4.9 h 4.9 v 1016.1 h -319 z m -5998,0 H 6898.7 v -319 h 2384.5 z"
           class="st0"
           inkscape:connector-curvature="0"
           sodipodi:nodetypes="ccccccccccccccccccccccccccccccc"
           id="Rahmen"
           style="fill:#e12617;fill-opacity:1" />
        <path
           d="m 16695.6,1372.4 c -4.7,-29.2 -6.6,-58.4 -11.3,-87.5 -107.3,-15.1 -223,-16 -333.1,-2.8 16,30.1 43.3,60.2 59.2,90.3 96,-14.1 180.7,-14.1 285.2,0 z m 127.1,-62.1 c 106.3,334.1 238.1,1046.5 93.1,1019.2 -48,54.6 -386.8,-339.7 -392.4,-700.2 l -65,5.6 c -112.9,425.4 366.3,674.9 411.5,1026.9 23,-5.8 63.9,-3.5 108,21.4 144,-440.4 132.7,-782.9 -31,-1350.4 -33.9,-416 -8.5,-563.7 166.6,-714.3 24,-73.9 22.1,-124.7 -5.7,-146.8 -32.9,8.6 -393.4,104.6 -285.1,838.6 z m 420.6,1592 c -34.9,-55.3 -56.6,-75.1 -104.4,-104.5 433.8,-641.8 325.6,-1080 -25.4,-1346.4 -19.5,-36.6 -19.5,-66.7 0,-90.3 254.1,127 485.6,403.7 378.3,999.4 297.4,-115.8 445.1,-70.6 643.7,-33.9 -18.8,32.9 -23.1,75.6 -56.5,98.8 -494.1,-121.3 -663.5,112.7 -835.7,476.9 z m -733.3,-68.9 c -79,10.8 -77.3,-67.8 28.3,-77.1 283.3,15.1 859.9,267.6 866.4,709.8 10,102 -18.8,168.4 -47.6,102.2 -19.7,-318.6 -430.8,-688.2 -847.1,-734.9 z m 752.6,897.7 c -112.1,-433.7 -668.8,-615.9 -1016.3,-636.7 -74.5,0.6 -70.7,-38 -16.8,-70.9 643.1,-48.9 1060.2,381 1093.1,616.6 8.1,57.7 -1,83.4 -60,91 z m -1127.2,-438.7 c 610.9,-10.1 1081.2,155.9 1040.1,561.3 -21.8,57.5 -24.6,6.8 42.1,171.9 19.5,82.7 3.8,162.2 -56.2,85.5 -52.6,-12.4 -80.2,-221.9 -155.6,-36.3 -43.1,130.9 -85.3,199.7 -186.8,375.1 -36.5,27.3 -109.7,22.4 -112.6,-4.9 121.8,-164.2 300.9,-518 193.9,-586.9 0,0 14.5,0 14.4,0 -0.4,-0.3 -0.9,-0.7 -1.4,-1 -0.1,-0.1 -0.2,-0.1 -0.3,-0.2 v 0 c -14,-9.9 -25.4,-28.4 -92.2,-27.8 -78.5,233.7 -129.3,481.8 -365.3,728.3 -53.7,63 -136.8,58.3 -93,-31.4 181.7,-236.3 274.6,-395.1 347.3,-656.5 9,-27.4 6.9,-43 -0.6,-75.1 -1.1,4.3 -4.9,-3.3 -29.1,-2.8 -138.1,49.3 151,-8.3 -545.2,792.9 -64.3,57.9 -138.1,30.4 -105.9,-36.3 229.3,-302.6 458.2,-576.6 463.3,-691.4 -20.7,-9.3 -40.3,0.2 -61,7.7 -99.1,160.6 -227.2,523.3 -765.4,618.2 -297,52.6 -1058.2,55.4 -1558.6,53.3 l -17.7,-137.9 c 1027.5,38.1 1907.3,20.3 1991.3,-280.4 -318.3,128.8 -316.9,158.5 -1989.1,134.4 l 8.4,-110.9 c 1569.3,6.8 1920.7,27.6 1943.6,-193.7 -165.2,90.2 -902.6,84.7 -1936.2,86.4 l -13,-119.4 c 1555.1,4.2 1898.4,48.9 1960.6,-161.9 -262.6,61.6 -1282.1,32.6 -1950.5,33.9 v -109.2 c 1297,2.3 1816.9,22.6 1811.7,-54.8 l 6.1,-0.4 c 0.8,-27.1 1.5,-54.3 2.3,-81.4 630,-134.6 1051.9,169.4 1102.5,236.2 l 9.3,1.6 c 62.9,-285.5 -639.8,-430.3 -931.1,-424.2 -82.4,14.8 -88.1,-57.7 29.9,-61.9"
           class="st0"
           inkscape:connector-curvature="0"
           id="Knoten"
           style="fill:#e12617;fill-opacity:1" />
      </g>
    </g>
    <flowRoot
       xml:space="preserve"
       id="link"
       style="font-style:normal;font-variant:normal;font-weight:normal;font-stretch:normal;font-size:53.33333206px;line-height:1.25;font-family:sans-serif;-inkscape-font-specification:'sans-serif, Normal';font-variant-ligatures:normal;font-variant-caps:normal;font-variant-numeric:normal;font-feature-settings:normal;text-align:center;letter-spacing:0px;word-spacing:0px;writing-mode:lr-tb;text-anchor:middle;fill:#e12617;fill-opacity:1;stroke:none"
       transform="translate(94.735365,-60.450347)"
       inkscape:label="#flowRoot92"><flowRegion
         id="flowRegion94"
         style="font-style:normal;font-variant:normal;font-weight:normal;font-stretch:normal;font-size:53.33333206px;font-family:sans-serif;-inkscape-font-specification:'sans-serif, Normal';font-variant-ligatures:normal;font-variant-caps:normal;font-variant-numeric:normal;font-feature-settings:normal;text-align:center;writing-mode:lr-tb;text-anchor:middle;fill:#e12617"><rect
           id="rect96"
           width="1889.3687"
           height="162.94418"
           x="-79.419418"
           y="674.06409"
           style="font-style:normal;font-variant:normal;font-weight:normal;font-stretch:normal;font-size:53.33333206px;font-family:sans-serif;-inkscape-font-specification:'sans-serif, Normal';font-variant-ligatures:normal;font-variant-caps:normal;font-variant-numeric:normal;font-feature-settings:normal;text-align:center;writing-mode:lr-tb;text-anchor:middle;fill:#e12617" /></flowRegion><flowPara
         id="flowPara1160">https://ch.nnev.de/$id</flowPara></flowRoot>  </g>
  <style
     id="style3"
     type="text/css">
	.st0{fill:#000000;}
</style>
</svg>
